<svg xmlns="http://www.w3.org/2000/svg" width="846" height="454" viewBox="0 0 846.674 454.107"><title>vctrly-chalky-icon-delivery-van</title><g fill="#212121"><g id="1729468008128-7958867_layer1" transform="translate(-6755.411 -7027.96)"><path d="m 6780.8538,7481.6944 c -3.1568,-0.1725 -6.0188,-0.4875 -6.36,-0.6975 -0.3405,-0.2115 -2.1798,-0.12 -4.0859,0.21 -3.2145,0.5505 -3.697,0.516 -6.6622,-0.471 -5.2407,-1.7439 -8.3142,-5.3457 -8.3343,-9.7671 -0.014,-3.1685 1.281,-4.6343 6.2595,-7.0803 l 4.4439,-2.1837 6.9057,-0.03 c 3.798,-0.014 7.8699,-0.045 9.0487,-0.075 2.6934,-0.06 11.3942,0.8205 12.4847,1.26 0.5085,0.2055 1.383,-0.075 2.3229,-0.744 1.9977,-1.422 5.4402,-1.728 8.3391,-0.741 2.8906,0.9855 5.7697,0.981 8.1085,-0.01 1.6622,-0.705 2.8545,-0.726 12.0835,-0.2205 10.089,0.5535 11.1924,0.519 15.9929,-0.5025 1.7884,-0.381 3.093,-0.366 5.0005,0.06 5.5061,1.209 11.216,1.476 14.8631,0.693 2.5891,-0.5565 7.4769,-0.7875 19.8648,-0.9435 23.3908,-0.294 25.6749,-0.2535 28.3368,0.498 3.6508,1.032 8.2908,1.2495 9.8166,0.462 2.2408,-1.1595 6.2136,-1.3725 8.9038,-0.4785 2.2118,0.735 2.5322,0.738 3.8708,0.045 0.8025,-0.4155 1.4565,-1.017 1.4535,-1.338 0,-0.321 -1.2075,-1.4175 -2.6765,-2.4373 -1.9426,-1.3485 -2.9319,-2.4449 -3.6288,-4.02 -0.5265,-1.191 -1.6585,-2.8266 -2.515,-3.6342 -0.909,-0.858 -1.7873,-2.3234 -2.1105,-3.5241 -0.309,-1.146 -1.353,-2.9318 -2.361,-4.0365 -2.7309,-2.9931 -2.9919,-3.7272 -2.6301,-7.3989 0.3105,-3.1523 0.279,-3.2816 -1.188,-4.9527 -1.0215,-1.164 -1.6914,-2.6058 -2.0814,-4.4834 -0.777,-3.741 -1.011,-4.0452 -2.6087,-3.3967 -1.9095,0.7755 -14.3781,1.3065 -28.4391,1.2135 -4.191,-0.03 -9.5559,0 -11.9218,0.075 -3.7869,0.105 -4.4049,0.01 -5.1627,-0.828 -1.3035,-1.44 -0.5925,-2.7159 2.2639,-4.0674 2.0204,-0.9555 3.4479,-1.2255 7.2837,-1.3785 2.624,-0.105 5.0717,-0.3765 5.4395,-0.6045 0.3675,-0.2295 1.633,-0.477 2.8119,-0.5505 1.179,-0.075 3.2146,-0.246 4.5243,-0.3825 1.3095,-0.135 5.1673,-0.318 8.5725,-0.4035 3.4051,-0.09 7.2673,-0.3075 8.5825,-0.495 1.413,-0.201 2.9354,-0.135 3.7221,0.165 1.9469,0.741 3.3587,-0.12 3.0161,-1.8294 -0.15,-0.7125 -0.06,-2.1392 0.1755,-3.1709 0.2385,-1.032 0.3135,-2.5465 0.1665,-3.3666 -0.315,-1.7512 -0.9015,-1.9035 -9.7088,-2.5233 -4.3467,-0.306 -6.0388,-0.2355 -8.2002,0.3405 -2.5893,0.69 -2.9016,0.6735 -6.3432,-0.3495 -3.7573,-1.116 -3.9922,-1.1115 -10.4598,0.15 -7.6063,1.485 -10.9161,0.69 -12.6907,-3.048 -2.9286,-6.168 -2.9568,-6.2749 -3.0741,-11.6533 -0.06,-2.8814 -0.546,-7.5054 -1.0725,-10.2758 -0.7275,-3.8217 -0.8505,-5.5182 -0.51,-7.0309 0.3315,-1.473 0.276,-2.4054 -0.21,-3.5682 -0.513,-1.227 -0.624,-4.0398 -0.504,-12.7334 0.09,-6.1375 0.2985,-12.2739 0.474,-13.6362 0.183,-1.4145 0.075,-3.7941 -0.2595,-5.5479 -0.453,-2.403 -0.4545,-3.6297 0,-5.6389 0.525,-2.3496 0.489,-2.7078 -0.429,-4.2152 -1.083,-1.7764 -1.3455,-5.2212 -0.5565,-7.297 0.327,-0.858 0.2355,-1.7361 -0.327,-3.1691 -0.723,-1.8397 -0.72,-2.2602 0.03,-5.8683 0.4425,-2.1376 0.8055,-4.9582 0.8055,-6.2679 -2e-4,-1.3095 0.318,-4.3468 0.708,-6.7494 0.678,-4.1828 0.666,-4.5058 -0.2955,-7.618 -0.8955,-2.8993 -0.945,-3.5844 -0.4545,-6.3475 0.4545,-2.5671 0.4245,-3.5052 -0.177,-5.4788 -0.8625,-2.8239 -0.9285,-4.9209 -0.216,-6.7555 0.7185,-1.8491 0.906,-14.2868 0.333,-22.0577 -0.261,-3.5361 -0.4155,-8.5725 -0.342,-11.1918 0.297,-10.7373 0.186,-13.3323 -0.711,-16.5532 -0.7935,-2.8485 -0.8325,-3.6695 -0.3405,-7.1438 0.3045,-2.1591 0.984,-5.2932 1.5067,-6.9648 0.9045,-2.8864 0.915,-3.2191 0.213,-6.6181 -0.5985,-2.8989 -0.6345,-4.0445 -0.1905,-6.029 0.495,-2.2138 0.4515,-2.6091 -0.456,-4.0975 -1.1385,-1.8672 -1.251,-3.6149 -0.456,-7.0574 0.4665,-2.0196 0.4215,-2.8008 -0.294,-5.073 -0.8235,-2.6181 -0.8205,-2.7576 0.12,-5.5257 0.75,-2.196 0.867,-3.1866 0.516,-4.3693 -0.249,-0.8415 -0.4185,-2.7081 -0.375,-4.1489 0.045,-1.44 -0.075,-3.6306 -0.2745,-4.8664 -0.225,-1.437 -0.15,-2.8107 0.2235,-3.81 0.318,-0.864 0.69,-5.1831 0.8295,-9.6591 0.324,-10.3311 0.315,-11.4419 -0.105,-14.1153 -0.2505,-1.5761 -0.12,-2.8856 0.4335,-4.5704 0.7035,-2.1189 0.7155,-2.748 0.105,-6.1254 -0.3705,-2.0701 -0.912,-4.3672 -1.2045,-5.1046 -0.7545,-1.9029 -0.6585,-5.7056 0.1995,-7.8482 0.681,-1.7014 0.666,-1.9704 -0.228,-3.9387 -1.2045,-2.656 -1.2045,-3.4096 0,-8.0527 0.8415,-3.2468 0.897,-4.0572 0.4005,-5.8214 -0.318,-1.128 -0.6225,-5.05 -0.6795,-8.7171 -0.06,-3.6672 -0.3615,-7.5247 -0.678,-8.5725 -0.4755,-1.5712 -0.4485,-2.275 0.153,-4.0171 0.5925,-1.7192 0.6255,-2.4942 0.1785,-4.1664 -0.432,-1.6131 -0.414,-2.4893 0.075,-4.0791 0.348,-1.1145 0.675,-3.525 0.7275,-5.3586 0.06,-1.8336 0.348,-3.9371 0.657,-4.6745 0.309,-0.738 0.561,-2.3301 0.561,-3.5394 0,-1.8655 0.39,-2.7844 2.5703,-6.0615 3.8376,-5.7673 6.9412,-7.5792 13.9456,-8.1412 2.5643,-0.2055 4.1699,-0.105 5.1534,0.309 0.786,0.3345 3.1433,0.6675 5.2388,0.741 2.0955,0.075 4.2387,0.153 4.7625,0.177 2.5453,0.12 11.8101,-0.51 14.8149,-0.996 2.7526,-0.4455 3.82,-0.42 5.715,0.135 1.9213,0.558 2.6893,0.573 4.3774,0.075 1.4805,-0.4335 3.0752,-0.4815 5.7638,-0.174 2.1244,0.2415 6.042,0.249 9.1446,0.015 3.4662,-0.261 6.8464,-0.228 9.3525,0.09 2.8198,0.36 5.1079,0.348 8.1285,-0.045 5.7327,-0.735 8.9718,-0.678 12.8016,0.228 2.6376,0.624 4.4463,0.6975 9.6736,0.393 3.5361,-0.2055 8.0367,-0.393 10.0013,-0.4185 2.97,-0.03 3.9328,-0.258 5.715,-1.317 3.9772,-2.3607 6.964,-2.8928 9.8511,-1.7547 3.1453,1.2405 7.0156,1.773 9.0349,1.245 1.5032,-0.393 2.6132,-0.366 4.6136,0.12 2.3716,0.5685 3.0619,0.5325 6.9297,-0.3705 4.0485,-0.945 4.4407,-0.9585 6.8166,-0.2535 2.0281,0.603 2.9626,0.6465 4.7812,0.228 1.4085,-0.3255 4.7307,-0.417 8.8106,-0.243 3.7263,0.159 7.4116,0.075 8.548,-0.1905 1.206,-0.2835 2.8686,-0.306 4.1972,-0.06 1.5105,0.282 4.1668,0.1575 8.4798,-0.3975 3.4542,-0.444 7.6734,-0.768 9.376,-0.72 1.7025,0.045 5.421,0.075 8.2632,0.075 2.8424,-0.01 6.182,0.2415 7.4217,0.5595 1.9415,0.498 2.5611,0.4605 4.4708,-0.2685 1.6806,-0.642 2.7654,-0.7575 4.4845,-0.477 1.248,0.204 3.9653,0.3255 6.0401,0.273 2.0746,-0.06 4.755,0.135 5.9563,0.4275 1.7963,0.4305 2.5644,0.3825 4.3241,-0.27 1.7107,-0.6345 4.3366,-0.825 13.0936,-0.951 6.0246,-0.09 13.7663,-0.363 17.2038,-0.615 5.8803,-0.429 12.4665,0.045 15.9201,1.137 0.489,0.1545 1.8077,-0.015 2.9319,-0.387 1.6073,-0.5265 3.4694,-0.5895 8.7117,-0.297 5.0922,0.285 7.2302,0.2205 9.0488,-0.273 1.491,-0.405 4.5169,-0.615 8.0962,-0.5625 4.9389,0.075 6.27,0.2715 9.8011,1.4775 l 4.086,1.395 4.5989,-1.275 c 5.2303,-1.4505 6.3993,-1.5369 8.5711,-0.63 2.5956,1.0845 6.4386,1.3095 13.5693,0.795 6.4385,-0.465 6.9389,-0.438 9.1062,0.495 2.1527,0.9255 2.4032,0.9405 4.0802,0.24 2.3532,-0.984 3.8427,-0.9285 6.4093,0.2355 1.8801,0.8535 2.3736,0.897 4.3656,0.3855 1.8819,-0.483 2.5805,-0.4545 4.3098,0.1755 1.1355,0.4125 3.8853,1.0125 6.1119,1.3335 2.2265,0.321 4.4768,0.822 5.0006,1.1145 0.5235,0.2925 3.2028,0.552 5.9532,0.576 2.7502,0.03 6.5007,0.3 8.3343,0.612 5.8521,0.9975 8.9586,1.4745 12.6207,1.9336 5.3821,0.675 6.6574,1.026 7.1589,1.9623 0.555,1.035 0.18,2.1758 -0.8415,2.5682 -0.636,0.2445 -0.564,0.4905 0.459,1.5847 1.5075,1.6116 2.7495,4.0253 2.7495,5.3436 0,0.5505 0.354,1.6857 0.7875,2.5241 0.768,1.4865 1.3485,4.7769 1.8624,10.5729 0.4575,5.1643 0.135,4.8264 4.6003,4.8925 2.1675,0.03 5.9886,0.06 8.4912,0.075 2.76,0.01 5.3336,0.2895 6.5414,0.7155 1.6267,0.5745 2.4688,0.603 4.6033,0.1545 1.9016,-0.399 4.0091,-0.414 7.7462,-0.06 3.0777,0.294 7.0414,0.3345 9.8964,0.105 3.8194,-0.312 5.1526,-0.2445 6.7327,0.339 1.683,0.621 2.7248,0.6465 7.1438,0.174 7.5561,-0.807 9.1857,-0.735 11.2552,0.501 1.326,0.792 2.1971,0.993 3.3338,0.7695 0.846,-0.1665 3.2527,-0.498 5.3482,-0.738 2.0955,-0.24 6.2747,-0.81 9.287,-1.2675 3.0121,-0.4575 6.6555,-0.7725 8.0962,-0.699 1.44,0.075 3.6374,0.135 4.8815,0.12 1.2435,0 3.3873,0 4.7625,0 5.0826,0.015 11.7622,-0.105 19.6453,-0.3585 7.5129,-0.2445 9.7968,-0.2595 15.4782,-0.09 1.179,0.03 3.8799,-0.03 6.0027,-0.135 3.857,-0.201 3.8613,-0.201 6.1505,1.583 1.26,0.981 2.5918,1.7845 2.9599,1.7845 1.068,0 7.6265,2.8532 8.2302,3.5805 0.3015,0.363 1.7081,0.999 3.1248,1.41 2.6127,0.759 5.9169,3.4118 5.9169,4.7496 0,0.363 0.768,1.374 1.706,2.2463 0.9375,0.873 2.3578,2.8723 3.1546,4.444 0.7965,1.5716 2.4167,4.1433 3.5997,5.715 1.1835,1.5716 2.6033,3.8219 3.1557,5.0006 0.552,1.179 1.4775,2.8054 2.0543,3.6148 0.5775,0.81 1.491,2.6493 2.0289,4.0887 0.5385,1.44 1.5405,3.1347 2.2264,3.7671 1.4445,1.332 2.5532,3.6878 2.5532,5.4252 0,0.666 0.618,2.0636 1.374,3.1068 0.8025,1.1085 1.5114,2.8389 1.7044,4.1631 0.2415,1.6593 0.7635,2.7141 1.9457,3.9389 0.888,0.9195 2.28,2.9559 3.0925,4.5243 0.813,1.5685 1.89,3.6019 2.3945,4.5186 0.504,0.9165 0.918,2.2189 0.918,2.8936 3e-4,0.7065 0.525,1.7166 1.2375,2.3813 1.476,1.3785 2.8018,3.8631 3.2827,6.1551 0.192,0.9165 1.5,3.4903 2.9046,5.7189 1.4055,2.2287 2.6886,4.8004 2.8524,5.715 0.4995,2.7889 2.0868,6.7417 3.2742,8.1528 0.618,0.735 1.5909,2.7378 2.1608,4.4505 0.57,1.7125 1.7149,3.9586 2.5444,4.9911 3.4737,4.3234 4.5603,6.1264 5.3241,8.8336 0.444,1.5716 1.317,3.7487 1.9425,4.838 0.6255,1.089 1.6914,3.5194 2.37,5.4004 0.678,1.881 1.8437,4.382 2.5893,5.5577 0.7455,1.176 1.505,3.0214 1.6874,4.1017 0.2475,1.4685 0.963,2.631 2.8308,4.6064 1.374,1.4535 3.5166,4.4637 4.7601,6.6901 3.2623,5.8406 4.4704,6.9558 8.4882,7.8357 0.7365,0.1605 2.236,1.113 3.3337,2.1158 1.098,1.002 2.8532,2.0956 3.9009,2.4292 2.0988,0.669 5.3854,2.4447 7.665,4.1427 0.8355,0.6225 2.1486,1.098 3.0316,1.098 0.8565,0 2.5512,0.3255 3.765,0.723 1.2135,0.3975 3.1715,0.9555 4.3503,1.2405 1.5843,0.3825 2.7018,1.1145 4.2863,2.8043 1.179,1.257 3.0507,2.7379 4.1601,3.2899 2.5512,1.269 3.0124,2.0138 5.052,8.1503 1.6486,4.9597 1.6695,5.1262 1.8829,15.0018 0.18,8.3439 0.354,10.2525 1.0605,11.6046 0.741,1.419 0.8055,2.4331 0.5265,8.2539 -0.288,6.0249 -0.2205,6.9501 0.7335,10.05 0.8985,2.9236 1.0545,4.5773 1.0845,11.5103 0.03,6.9834 0.1575,8.3237 0.9315,9.7502 0.813,1.4985 0.906,2.9517 0.9915,15.4782 0.045,7.6032 0.264,14.734 0.471,15.8463 0.24,1.287 0.165,2.7789 -0.2055,4.1049 -0.498,1.777 -0.468,2.3043 0.198,3.5928 0.6585,1.2735 0.747,2.722 0.57,9.2301 -0.12,4.246 -0.519,10.2996 -0.897,13.4524 -0.6045,5.0487 -0.918,6.1848 -2.6292,9.525 -1.464,2.8596 -1.8819,4.1601 -1.6977,5.2865 0.348,2.1316 -1.3185,5.6295 -3.2683,6.8586 -1.4565,0.918 -2.1207,0.981 -8.4858,0.81 -6.0501,-0.162 -7.1654,-0.075 -9.0012,0.738 -1.6377,0.7215 -2.574,0.843 -4.2863,0.558 -1.2045,-0.201 -3.4765,-0.339 -5.0482,-0.306 -1.5716,0.03 -5.7507,-0.2565 -9.2868,-0.6435 -4.575,-0.501 -6.9093,-0.5655 -8.0932,-0.225 -0.915,0.264 -3.7721,0.4785 -6.3491,0.4785 h -4.6855 l 0.105,10.3585 c 0.105,10.9302 -0.09,12.3344 -2.106,15.3176 -0.687,1.017 -1.476,3.3456 -1.9499,5.7564 -0.9495,4.8327 -3.885,11.7072 -6.1089,14.3055 -0.882,1.0305 -2.2105,3.0007 -2.9536,4.38 -0.7425,1.3785 -2.3864,3.6501 -3.6516,5.0464 -3.3024,3.6441 -3.1676,3.9 1.44,2.7344 4.2142,-1.0665 15.2652,-0.885 18.8806,0.309 1.5717,0.519 4.572,1.1355 6.6675,1.3695 6.2667,0.699 9.6302,1.2435 10.3109,1.6678 0.354,0.2205 1.7145,0.546 3.0241,0.7245 1.3095,0.1785 3.5599,0.639 5.0007,1.026 1.44,0.3855 3.9052,0.96 5.4768,1.275 5.4846,1.0995 5.7064,1.188 5.8723,2.3424 0.1935,1.347 -1.149,2.9213 -2.4933,2.9216 -0.549,1e-4 -2.0694,0.4005 -3.379,0.888 -1.3095,0.489 -3.9491,1.0275 -5.8653,1.197 -1.9678,0.174 -4.291,0.72 -5.3388,1.2555 -1.02,0.5205 -2.7175,0.9465 -3.7719,0.9465 -2.0388,0 -5.0937,0.6075 -8.5983,1.7113 -1.179,0.3705 -3.135,0.6735 -4.3471,0.672 -1.212,0 -3.0339,0.345 -4.0482,0.768 -1.377,0.576 -2.6387,0.6975 -4.9845,0.48 -2.2767,-0.2115 -3.7584,-0.075 -5.388,0.474 -1.5542,0.5295 -3.0831,0.681 -4.9559,0.4905 -3.7609,-0.3825 -7.7238,-1.0905 -9.1351,-1.6302 -0.762,-0.291 -1.6709,-0.2865 -2.5337,0.015 -0.774,0.27 -2.2929,0.3135 -3.5743,0.105 -1.2255,-0.201 -3.5147,-0.3285 -5.0864,-0.2805 -1.5715,0.045 -3.9877,-0.171 -5.3691,-0.4845 -2.2827,-0.5175 -2.6998,-0.4755 -4.5765,0.4605 -2.2539,1.125 -4.2846,1.3005 -6.2794,0.543 -0.885,-0.336 -2.117,-0.33 -3.9602,0.015 -7.701,1.467 -49.7874,1.4535 -53.655,-0.015 -0.8595,-0.327 -1.8645,-0.318 -3.1528,0.03 -1.296,0.348 -2.6682,0.36 -4.359,0.03 -4.5555,-0.8745 -9.5478,-1.1025 -11.0489,-0.504 -2.1622,0.861 -18.9693,0.9915 -21.3127,0.1635 -1.3365,-0.471 -2.3844,-0.528 -3.8322,-0.204 -4.1651,0.93 -7.8246,1.3365 -9.912,1.101 -1.191,-0.135 -4.0338,0.12 -6.3249,0.582 -4.248,0.843 -5.3318,0.798 -10.7591,-0.45 -4.3048,-0.99 -6.6447,-0.915 -9.3454,0.2985 -3.1587,1.419 -12.2019,1.6138 -15.2954,0.33 -1.308,-0.543 -2.6179,-0.741 -3.7191,-0.5625 -1.029,0.1665 -2.8027,-0.06 -4.4958,-0.57 -2.6589,-0.8055 -2.8963,-0.8055 -4.8535,-0.015 -3.1923,1.2795 -9.8837,1.8027 -25.1558,1.9641 -7.7272,0.075 -17.0497,0.2505 -20.7169,0.375 -3.6671,0.12 -7.9533,0.01 -9.525,-0.2565 -3.656,-0.618 -7.7411,-0.588 -30.7181,0.219 -4.9839,0.1755 -6.3184,0.06 -8.196,-0.6645 -2.1909,-0.8535 -2.29,-0.852 -4.2862,0.06 -2.2992,1.044 -4.9008,1.203 -6.894,0.4245 -0.738,-0.288 -2.6988,-0.699 -4.3586,-0.912 -2.6683,-0.342 -3.3027,-0.255 -5.4769,0.7575 -2.856,1.3305 -4.7487,1.4445 -6.7362,0.408 -1.1445,-0.597 -1.8092,-0.642 -3.4316,-0.234 -1.575,0.396 -2.464,0.354 -4.093,-0.1995 -1.4835,-0.504 -2.5176,-0.582 -3.601,-0.27 -0.8355,0.24 -3.4988,0.465 -5.9172,0.501 -2.4186,0.03 -5.1476,0.075 -6.0642,0.09 -0.9165,0.015 -3.4478,-0.189 -5.6244,-0.453 -2.5763,-0.3135 -4.6541,-0.321 -5.9532,-0.015 -1.8497,0.426 -4.0511,0.3675 -14.4875,-0.39 -2.4745,-0.18 -4.4934,-0.075 -5.4768,0.2655 -0.8565,0.303 -4.8145,0.648 -8.7952,0.7665 -3.9807,0.12 -7.7987,0.4305 -8.4845,0.69 -1.7613,0.6705 -4.276,0.588 -6.1615,-0.1995 -1.2345,-0.516 -2.0624,-0.5595 -3.5343,-0.186 -1.467,0.372 -2.406,0.3255 -3.9684,-0.201 -1.2645,-0.426 -2.547,-0.552 -3.3587,-0.3315 -1.1025,0.3015 -10.5396,0.5355 -16.5468,0.411 -0.9165,-0.015 -2.9836,0.105 -4.593,0.288 -1.7584,0.195 -3.564,0.12 -4.5244,-0.1995 -1.2375,-0.405 -2.1143,-0.3675 -3.8873,0.1695 -2.5039,0.7575 -9.7648,0.6195 -11.9973,-0.2295 -0.9435,-0.3585 -1.6132,-0.2835 -2.7661,0.3135 -1.8668,0.9645 -4.653,0.9495 -7.4153,-0.045 -2.9026,-1.041 -6.592,-0.957 -8.8698,0.204 -2.2005,1.122 -4.9909,1.2285 -6.8604,0.261 -1.065,-0.5505 -1.689,-0.582 -3.0718,-0.1575 -1.275,0.3915 -2.1936,0.393 -3.4575,0 -1.224,-0.375 -4.0971,-0.399 -9.935,-0.075 -6.4917,0.3525 -8.5936,0.315 -10.0279,-0.1815 -1.5141,-0.5235 -2.4518,-0.5175 -5.6622,0.045 -2.9006,0.5025 -5.3021,0.5685 -9.756,0.2655 -4.3985,-0.3 -6.3458,-0.2505 -7.62,0.1935 -2.3391,0.8145 -4.1594,0.762 -6.8388,-0.198 -1.9614,-0.7035 -2.5761,-0.732 -4.5245,-0.21 -1.2405,0.3315 -5.3389,0.81 -9.1086,1.062 -3.7696,0.2535 -7.0239,0.564 -7.2318,0.693 -0.2085,0.135 -1.3035,0.03 -2.4346,-0.228 -1.305,-0.2925 -2.7894,-0.297 -4.0589,-0.011 -1.449,0.3255 -2.8302,0.2595 -4.9989,-0.24 -2.0493,-0.471 -4.4272,-0.6075 -7.5211,-0.432 -2.4885,0.135 -5.4888,0.2565 -6.6675,0.258 -1.179,5e-4 -3.1076,0 -4.2863,0.01 -1.179,0 -4.1791,-0.045 -6.6675,-0.105 -8.1948,-0.2025 -16.9162,-0.1995 -23.3362,0 -1.179,0.045 -3.1076,0.09 -4.2863,0.12 -1.179,0.03 -2.8312,-0.24 -3.672,-0.6045 -1.3455,-0.5835 -1.7323,-0.5655 -3.2308,0.15 -2.2925,1.0935 -11.964,1.116 -14.7666,0.03 -1.3455,-0.519 -3.8631,-0.7575 -8.5692,-0.813 -5.9169,-0.075 -6.9125,0.03 -8.876,0.9465 -2.0274,0.939 -2.9019,1.017 -10.4935,0.927 -4.5551,-0.06 -8.5767,-0.2805 -8.9372,-0.5025 -1.1865,-0.7335 -12.4414,-0.72 -15.0028,0.015 -3.0933,0.891 -5.2574,0.8565 -7.9992,-0.12 -2.1906,-0.786 -2.3436,-0.777 -5.6391,0.303 -2.9263,0.96 -3.9808,1.0725 -7.7496,0.828 -2.5095,-0.162 -5.2092,-0.075 -6.3567,0.219 -1.5376,0.387 -2.847,0.33 -5.715,-0.249 -3.2638,-0.6585 -3.9541,-0.6675 -5.6254,-0.075 -1.047,0.375 -2.2265,0.657 -2.6193,0.627 -0.393,-0.03 -3.2973,-0.1965 -6.4542,-0.369 z m 286.9255,-21.8718 c 1.6747,-0.48 2.529,-0.483 4.1922,-0.015 1.798,0.504 2.4453,0.4635 4.65,-0.285 2.4462,-0.831 2.6935,-0.834 5.5113,-0.045 2.7688,0.7695 3.0978,0.771 5.3509,0.03 1.8936,-0.6285 3.2142,-0.7245 6.251,-0.4485 2.1175,0.192 6.8505,0.435 10.5175,0.54 3.6672,0.105 6.9426,0.2955 7.2788,0.4215 0.336,0.12 2.1835,-0.015 4.105,-0.3135 2.4242,-0.3765 4.3839,-0.4005 6.4016,-0.075 2.3592,0.3795 3.5169,0.309 6.1344,-0.3735 4.093,-1.068 7.2735,-1.1085 9.3444,-0.12 1.4145,0.675 2.0199,0.699 4.6596,0.1815 1.8708,-0.366 6.5026,-0.567 12.0825,-0.525 13.0939,0.105 47.042,0.4755 57.8644,0.639 8.2882,0.12 9.4875,0.045 11.1538,-0.7545 2.3162,-1.11 7.4474,-1.131 10.3845,-0.045 3.2607,1.209 4.0076,1.29 6.4847,0.696 2.7939,-0.6705 10.1491,-0.9495 33.4132,-1.2675 9.5607,-0.135 18.1488,-0.2475 19.0847,-0.261 0.936,-0.013 2.5479,0.408 3.5823,0.936 1.7845,0.9105 2.0263,0.9225 4.7277,0.234 2.6467,-0.675 3.0307,-0.663 5.4567,0.1605 3.1506,1.0695 7.1038,0.951 10.8147,-0.3255 2.2105,-0.7605 3.4597,-0.846 8.6904,-0.5955 4.2342,0.2025 6.8202,0.105 8.4276,-0.306 1.5978,-0.4125 6.318,-0.5895 15.1777,-0.5685 11.1789,0.03 13.3254,0.1515 16.4307,0.963 3.563,0.9315 3.5759,0.9315 5.2233,-0.03 2.258,-1.308 5.4926,-1.5494 11.6835,-0.87 2.8814,0.3165 6.6318,0.5655 8.3345,0.552 5.4463,-0.045 22.3386,-0.948 23.3005,-1.2525 0.897,-0.285 0.888,-0.354 -0.2325,-2.0054 -0.639,-0.9405 -1.161,-1.9762 -1.161,-2.3008 0,-0.324 -1.026,-1.6661 -2.2803,-2.981 -2.2779,-2.3884 -2.2819,-2.3902 -3.8647,-1.7247 -0.8715,0.366 -2.2593,0.666 -3.0843,0.666 -0.825,0 -2.6756,0.4515 -4.1124,1.0035 -1.437,0.552 -3.47,1.176 -4.5177,1.3875 -5.6906,1.1475 -7.4423,1.4685 -10.4775,1.9221 -1.8336,0.2745 -4.4054,0.894 -5.715,1.377 -3.0018,1.107 -6.5228,1.931 -8.2578,1.931 -0.7365,0 -2.9138,-0.5355 -4.839,-1.191 -1.9254,-0.6555 -3.9453,-1.1985 -4.4888,-1.2075 -2.4742,-0.045 -6.1792,-3.9324 -6.1792,-6.4878 0,-1.392 0.474,-2.1008 3.1611,-4.7222 3.9492,-3.8532 5.433,-4.4895 10.4712,-4.4895 2.1711,0 4.6962,-0.2175 5.6112,-0.483 1.6362,-0.4755 3.3072,-0.2685 8.3313,1.0305 1.0485,0.2715 3.6591,0.4575 5.803,0.4125 3.0356,-0.06 4.3923,0.135 6.1326,0.909 1.332,0.5895 3.2399,0.9885 4.7226,0.9885 1.368,0 3.1736,0.2385 4.0119,0.531 0.8385,0.2925 1.629,0.426 1.7573,0.2985 0.135,-0.135 -0.2175,-0.999 -0.7695,-1.9336 -0.864,-1.4655 -0.96,-2.148 -0.687,-4.9416 0.2775,-2.8419 0.195,-3.3945 -0.6675,-4.4874 -1.269,-1.6071 -4.382,-2.0577 -9.1643,-1.326 -1.9353,0.2955 -5.5548,0.591 -8.0431,0.657 -2.6942,0.075 -5.6055,0.4605 -7.1967,0.9645 -2.3622,0.7485 -3.5496,0.7965 -10.2306,0.423 -6.8945,-0.3855 -9.432,-0.297 -15.9695,0.564 -2.6005,0.342 -4.1637,-0.3345 -6.5827,-2.8515 -1.5045,-1.5654 -1.8659,-1.7076 -4.3412,-1.7076 -2.4612,0 -2.9161,-0.1755 -5.1453,-1.9892 -3.555,-2.8918 -3.1942,-4.7367 1.2315,-6.298 1.08,-0.381 2.676,-1.47 3.5483,-2.4194 1.101,-1.2 2.2407,-1.8721 3.7291,-2.2021 1.179,-0.261 2.931,-1.0185 3.8942,-1.682 2.304,-1.5879 4.9752,-1.9147 7.7956,-0.954 1.2315,0.42 2.4449,0.6375 2.6949,0.483 0.2505,-0.1545 1.9913,-0.339 3.8696,-0.411 1.8783,-0.075 4.3216,-0.291 5.4298,-0.486 1.6938,-0.3 2.4353,-0.15 4.6539,0.9795 2.6148,1.323 2.6555,1.3275 4.3857,0.5025 1.4475,-0.69 2.4426,-0.7755 5.8235,-0.498 2.2425,0.1845 4.5192,0.501 5.0596,0.7035 0.54,0.2025 1.9676,0.15 3.1718,-0.135 1.9111,-0.438 2.4388,-0.3705 4.152,0.522 2.6371,1.374 2.8704,1.311 2.8231,-0.7635 -0.075,-3.2218 0.4155,-9.8634 0.7935,-10.7758 0.3465,-0.8355 0.171,-0.8745 -2.6808,-0.6075 -1.6777,0.1575 -3.8403,0.4215 -4.8057,0.585 -1.143,0.1935 -2.6385,4e-4 -4.2862,-0.555 -3.5121,-1.1835 -11.6822,-0.837 -19.0322,0.8085 -1.449,0.324 -2.7832,0.3375 -3.8637,0.045 -1.059,-0.2925 -3.9783,-0.285 -8.1436,0.015 -4.7796,0.351 -7.7817,0.324 -11.3762,-0.105 -7.3845,-0.8775 -12.7228,-0.9075 -14.4079,-0.075 -1.6794,0.8235 -6.0615,0.9435 -13.127,0.357 -3.8752,-0.321 -5.2969,-0.2745 -6.19,0.2025 -0.8685,0.465 -5.2296,0.663 -17.3531,0.789 -13.7184,0.15 -16.4908,0.06 -18.1381,-0.5655 -1.7426,-0.6585 -2.1242,-0.6585 -3.6756,-0.011 -2.2605,0.945 -3.9471,0.9 -6.2961,-0.168 -1.6208,-0.7365 -3.0108,-0.855 -9.0488,-0.768 -4.1113,0.06 -7.7239,0.339 -8.5266,0.6615 -1.059,0.426 -2.7313,0.4305 -6.9807,0.015 -4.1923,-0.405 -6.2472,-0.402 -8.2278,0.01 -1.7509,0.363 -3.1845,0.3975 -4.2573,0.105 -2.533,-0.699 -18.6616,-0.186 -21.7933,0.693 -1.9571,0.549 -3.0812,0.624 -4.3136,0.2835 -1.1055,-0.306 -2.5015,-0.2895 -4.1481,0.045 -2.0817,0.426 -2.8968,0.3675 -5.0605,-0.369 -2.1884,-0.744 -3.2877,-0.819 -7.2544,-0.498 -2.5713,0.2085 -7.6755,0.387 -11.3427,0.3975 -5.6051,0.015 -7.1988,-0.15 -10.0013,-1.0395 -2.7208,-0.8625 -3.5526,-0.957 -4.5243,-0.5085 -2.5527,1.1775 -13.2069,1.9147 -19.5262,1.3515 -0.9165,-0.075 -2.8457,0.1785 -4.2863,0.5775 -2.16,0.5985 -3.9561,0.6555 -10.2394,0.321 -4.191,-0.222 -11.9063,-0.483 -17.145,-0.5775 -5.2388,-0.09 -11.4158,-0.297 -13.7267,-0.447 -2.3109,-0.15 -4.7397,-0.075 -5.3974,0.1815 -0.762,0.2895 -3.44,0.2835 -7.3872,-0.015 -5.3576,-0.408 -6.3891,-0.369 -7.6593,0.288 -1.0815,0.5595 -2.0426,0.6675 -3.6512,0.414 -2.7387,-0.4335 -4.0872,-0.465 -11.47,-0.276 -3.2744,0.09 -6.3818,0.075 -6.9057,-0.03 -0.921,-0.1695 -0.954,0.09 -0.9795,7.9207 -0.03,8.5937 -0.387,10.7079 -2.286,13.5174 -0.699,1.0335 -1.4835,3.3435 -1.9599,5.7707 -0.9525,4.8531 -3.8876,11.7102 -6.134,14.3346 -0.8955,1.0455 -2.2852,3.1353 -3.0889,4.6434 -0.804,1.5081 -1.9262,3.1593 -2.4941,3.6693 -0.5685,0.51 -1.9669,2.1381 -3.1089,3.618 -1.8054,2.3395 -1.9687,2.7358 -1.251,3.0352 0.453,0.189 5.5328,0.4365 11.2872,0.549 5.7543,0.105 10.5162,0.258 10.5819,0.324 0.4035,0.4035 12.1889,-0.105 13.9202,-0.5985 z m -76.1768,-3.4406 c 1.431,-0.4905 3.4278,-0.8925 4.436,-0.8925 1.008,0 2.9922,-0.5295 4.4091,-1.179 1.4175,-0.648 3.1713,-1.3245 3.8985,-1.5046 0.7275,-0.18 3.144,-1.1715 5.3706,-2.2052 4.458,-2.0692 7.3303,-4.5049 9.7792,-8.2924 0.876,-1.356 2.274,-2.9631 3.1055,-3.572 1.6545,-1.212 6.0756,-7.6195 7.3188,-10.6081 0.4305,-1.035 1.1145,-3.4914 1.5216,-5.4593 0.7635,-3.6948 1.3485,-5.0583 3.1371,-7.3057 l 1.044,-1.311 -1.0425,-2.1471 c -0.981,-2.0193 -1.0245,-2.57 -0.735,-9.2526 l 0.3075,-7.1055 -1.7024,-3.4856 c -0.936,-1.917 -2.2764,-4.8786 -2.9779,-6.5812 -0.702,-1.7025 -1.5393,-3.417 -1.862,-3.81 -0.3225,-0.393 -1.413,-2.1527 -2.422,-3.9105 -1.3395,-2.3333 -2.1677,-3.2693 -3.0662,-3.4665 -2.3193,-0.51 -4.0488,-2.1141 -5.7538,-5.3385 -1.47,-2.7812 -2.0916,-3.4443 -4.5836,-4.8948 -1.5853,-0.9225 -3.6693,-2.373 -4.6309,-3.2226 -0.9615,-0.849 -2.5463,-1.9772 -3.5213,-2.5053 -0.975,-0.528 -2.0941,-1.149 -2.487,-1.38 -1.281,-0.753 -8.7276,-2.6039 -10.2163,-2.5389 -0.798,0.03 -4.1307,0.1575 -7.4049,0.2715 -3.9627,0.135 -7.2128,0.5445 -9.7203,1.215 -2.072,0.5535 -4.1202,1.005 -4.5518,1.005 -1.2405,0 -6.9171,3.0205 -9.2149,4.9035 -1.1505,0.9435 -2.9274,2.2072 -3.9476,2.8092 -1.02,0.6015 -3.2334,2.5557 -4.918,4.3416 -1.6848,1.7859 -3.9674,3.777 -5.0723,4.4245 -1.5214,0.891 -2.3191,1.8375 -3.2874,3.8984 -0.7035,1.497 -1.774,3.2568 -2.3796,3.9115 -0.606,0.6555 -2.0038,3.0009 -3.1075,5.2133 -1.9431,3.8953 -1.9965,4.1251 -1.6874,7.2625 0.2745,2.7833 0.135,3.7533 -0.9375,6.8793 -1.128,3.2679 -1.266,4.4181 -1.359,11.2722 -0.09,7.1867 -0.045,7.7049 0.918,8.8626 1.6694,2.0091 2.0477,3.0401 2.5244,6.8795 0.39,3.1366 0.7545,4.1064 2.5798,6.8598 1.17,1.7635 2.9274,4.4563 3.9065,5.9839 1.3395,2.0907 2.2798,2.9915 3.8014,3.6438 1.134,0.486 2.7794,1.7916 3.7494,2.9753 1.395,1.7034 2.8514,2.6427 7.5714,4.8853 3.2139,1.5272 6.4863,3.2247 7.2722,3.7724 1.0815,0.7545 2.2393,1.014 4.7625,1.071 1.8336,0.045 5.4769,0.2715 8.0962,0.5115 5.8649,0.5385 9.6837,0.279 13.0803,-0.885 z m -17.7048,-29.1657 c -1.2345,-0.6645 -3.0555,-1.4295 -4.0482,-1.7019 -2.8929,-0.7935 -6.6094,-4.1374 -8.2342,-7.4104 -3.1037,-6.2519 -3.9714,-8.934 -4.1636,-12.8676 -0.1695,-3.4799 -0.06,-4.0931 1.2735,-6.9057 0.8025,-1.6977 1.461,-3.3608 1.461,-3.6956 6e-4,-1.053 2.7116,-6.0112 3.8817,-7.1007 1.218,-1.134 9.4029,-4.4349 10.9974,-4.4349 0.5415,0 1.7445,-0.579 2.6718,-1.2855 2.5067,-1.9119 6.3375,-2.0955 9.4298,-0.4515 1.2705,0.675 3.2734,1.3485 4.4523,1.497 2.8263,0.3555 5.7249,2.0345 6.9055,4.0001 0.5235,0.8715 1.7655,2.5068 2.7593,3.6325 3.693,4.1837 3.3718,6.9977 -1.3305,11.6585 -2.8724,2.847 -3.2844,3.0934 -5.1333,3.0711 -2.9453,-0.03 -7.0742,-1.419 -9.1425,-3.0623 -2.3735,-1.8862 -4.6721,-1.9417 -6.5339,-0.1575 -0.999,0.957 -1.335,1.7304 -1.335,3.0675 0,0.984 0.192,1.9065 0.426,2.0514 0.234,0.15 3.6039,0.36 7.4874,0.477 6.0156,0.1815 7.1511,0.3375 7.6698,1.0455 0.3945,0.54 0.6075,2.4342 0.6045,5.385 -0.01,7.8905 -2.3346,11.1099 -9.3199,12.8964 -6.3747,1.6304 -8.1993,1.6799 -10.778,0.2925 z m 494.2089,29.168 c 1.41,-0.3915 2.7088,-0.3855 5.0007,0.03 2.5912,0.462 3.436,0.4335 5.1801,-0.183 1.146,-0.405 2.928,-0.7365 3.9595,-0.7365 1.032,0 3.035,-0.5295 4.4519,-1.179 1.4175,-0.648 3.1713,-1.3245 3.8985,-1.5047 0.7275,-0.18 3.144,-1.1715 5.3706,-2.2051 4.458,-2.0693 7.3303,-4.505 9.7792,-8.2925 0.876,-1.356 2.274,-2.9631 3.1055,-3.5719 1.6545,-1.212 6.0756,-7.6196 7.3188,-10.6082 0.4305,-1.035 1.1145,-3.4914 1.5216,-5.4592 0.762,-3.6909 1.35,-5.06 3.1288,-7.2947 l 1.035,-1.3005 -1.098,-2.3454 c -0.9945,-2.1225 -1.065,-2.74 -0.753,-6.5002 0.2565,-3.0761 0.195,-4.2485 -0.2355,-4.5149 -0.4575,-0.2835 -0.4515,-0.873 0.03,-2.7517 0.5985,-2.3378 0.5745,-2.471 -1.095,-5.8892 -0.939,-1.9233 -2.2821,-4.8901 -2.9836,-6.5928 -0.702,-1.7025 -1.5488,-3.417 -1.883,-3.81 -0.3345,-0.393 -1.494,-2.3455 -2.5788,-4.3392 -1.329,-2.4445 -2.9383,-4.5061 -4.941,-6.331 -1.6333,-1.488 -3.7198,-3.4038 -4.6365,-4.2569 -0.9165,-0.8535 -2.7385,-2.1627 -4.0482,-2.9106 -1.3095,-0.7485 -3.1752,-2.0674 -4.1457,-2.9323 -0.9705,-0.864 -2.5779,-2.0126 -3.5719,-2.5505 -0.9945,-0.5385 -2.1288,-1.167 -2.5217,-1.398 -1.281,-0.753 -8.7276,-2.6038 -10.2163,-2.5389 -0.798,0.03 -4.1307,0.1575 -7.4049,0.2715 -3.9627,0.135 -7.2128,0.5445 -9.7203,1.215 -2.072,0.5535 -4.1202,1.005 -4.5518,1.005 -1.2405,0 -6.9171,3.0206 -9.2149,4.9035 -1.1505,0.9435 -2.9274,2.2073 -3.9476,2.8092 -1.02,0.6015 -3.2334,2.5557 -4.918,4.3416 -1.6848,1.7859 -3.9674,3.777 -5.0723,4.4246 -1.5214,0.891 -2.3191,1.8375 -3.2874,3.8983 -0.7035,1.497 -1.774,3.2568 -2.3796,3.9116 -0.606,0.6555 -2.0038,3.0009 -3.1075,5.2132 -1.9388,3.8865 -1.9959,4.1312 -1.6901,7.2341 0.2745,2.7844 0.135,3.7693 -1.0665,7.4074 -1.248,3.7859 -1.362,4.6503 -1.1595,8.8446 0.2205,4.5701 0.2445,4.6527 1.476,4.8885 0.6885,0.135 2.1104,0.513 3.1586,0.846 1.323,0.42 2.3839,0.4695 3.4686,0.1575 1.041,-0.2985 2.6317,-0.258 4.7616,0.12 1.7593,0.312 5.0205,0.6675 7.2471,0.7875 2.2264,0.12 5.6017,0.3435 7.5009,0.4965 1.899,0.153 3.4528,0.1755 3.4528,0.045 0,-0.12 -0.534,-1.161 -1.185,-2.3013 -1.35,-2.3628 -1.5252,-4.8879 -0.507,-7.3261 0.555,-1.329 0.5805,-1.9535 0.12,-3.1994 -0.309,-0.852 -0.567,-3.6916 -0.57,-6.3109 -0.01,-6.0491 0.528,-6.9041 6.3053,-10.0227 2.2905,-1.236 5.0292,-2.8412 6.0862,-3.5661 1.8893,-1.296 2.9418,-1.5705 5.6145,-1.4655 1.9086,0.075 6.8091,4.8175 7.557,7.3137 1.0215,3.4111 -0.2685,6.3727 -4.9338,11.3233 -1.239,1.3155 -1.6716,2.1404 -1.488,2.841 0.321,1.227 1.9199,2.3871 3.2888,2.3871 1.029,0 6.0016,-3.3745 7.2936,-4.9492 0.3735,-0.456 1.3005,-1.1505 2.0604,-1.5425 1.239,-0.6405 1.5012,-0.6345 2.5606,0.06 0.6495,0.4245 1.2495,1.029 1.3365,1.341 0.09,0.312 0.4215,1.532 0.7455,2.7107 0.324,1.179 0.885,2.9512 1.2465,3.9387 0.9315,2.5435 0.843,6.9418 -0.177,8.7367 -1.314,2.3154 -4.2625,4.6154 -9.3099,7.2617 -4.3306,2.2705 -4.9078,2.4466 -8.0164,2.4466 -2.7617,0 -3.9494,-0.2715 -6.7635,-1.5477 -3.2835,-1.4895 -3.6314,-1.5453 -9.1286,-1.482 -6.8875,0.075 -15.4174,0.8895 -20.1193,1.9133 -2.1839,0.4755 -4.3695,0.642 -5.9532,0.453 -3.344,-0.3975 -3.8894,0.015 -3.5825,2.7432 0.171,1.5126 0.9,3.1656 2.3868,5.407 1.1775,1.7757 2.9423,4.4783 3.9213,6.0059 1.3455,2.0982 2.2782,2.9908 3.8169,3.6504 1.1445,0.4905 2.7389,1.7508 3.6398,2.8771 1.3065,1.6334 3.0124,2.7051 9.2227,5.7933 l 7.62,3.7893 4.5245,-0.249 c 2.4883,-0.135 4.953,-0.06 5.4768,0.1665 1.3095,0.573 2.0742,0.564 4.2856,-0.045 z m -583.002,-71.9156 c 2.2827,-0.3555 5.6844,-0.4005 10.3121,-0.135 3.798,0.216 9.1558,0.441 11.9062,0.498 2.7503,0.06 6.0636,0.1725 7.3629,0.258 l 2.3624,0.1545 0.7335,-1.9416 c 0.4035,-1.068 1.6216,-3.5323 2.7075,-5.4768 1.086,-1.9444 2.1186,-4.2217 2.295,-5.0605 0.1935,-0.9165 1.572,-2.9123 3.4555,-5.0006 1.724,-1.9116 3.752,-4.4398 4.5065,-5.6187 0.7545,-1.179 2.2416,-3.0003 3.3048,-4.048 1.0635,-1.047 2.8333,-3.0837 3.9337,-4.5245 2.3427,-3.0669 9.3474,-8.128 12.9153,-9.3316 1.3095,-0.4425 4.0374,-1.6305 6.0617,-2.6414 2.0241,-1.011 4.2567,-1.8382 4.9611,-1.8382 0.705,0 2.6616,-0.759 4.3495,-1.6868 4.9538,-2.7229 12.1346,-3.396 23.204,-2.1748 12.2521,1.3515 12.6004,1.446 21.1932,5.7439 11.9242,5.9645 12.1947,6.1326 14.9935,9.3206 1.4985,1.7065 3.1832,3.3484 3.7443,3.6487 0.618,0.3315 4.2975,0.6075 9.338,0.702 7.29,0.135 8.7793,0.03 12.0544,-0.852 2.5898,-0.699 4.3502,-0.912 5.7348,-0.6945 3.4658,0.5445 17.6055,0.432 19.0821,-0.1515 1.0035,-0.396 2.6834,-0.4065 6.2996,-0.045 4.5802,0.4665 5.0671,0.432 6.8286,-0.4665 2.2486,-1.1475 5.1804,-1.2375 8.4073,-0.258 3.5643,1.0815 9.1083,0.9375 11.9214,-0.3105 2.9231,-1.296 5.5226,-1.302 8.3184,-0.015 2.0088,0.921 2.3751,0.951 4.5245,0.363 1.2855,-0.3525 3.0888,-0.9525 4.0056,-1.335 2.7955,-1.1655 19.7655,-1.4265 23.5629,-0.363 1.6374,0.459 2.4486,0.456 3.8625,-0.01 2.299,-0.759 17.9119,-1.329 24.7239,-0.903 1.3095,0.075 4.2237,0.09 6.4756,0.01 3.1314,-0.105 4.4619,0.045 5.6575,0.666 1.035,0.5355 2.2275,0.732 3.5258,0.582 2.842,-0.3285 19.8759,0.999 24.346,1.8972 4.0679,0.8175 11.0771,1.5477 16.907,1.7613 1.9644,0.075 4.3219,0.384 5.2387,0.6915 0.9165,0.309 3.7028,0.783 6.1913,1.0545 9.0958,0.9915 9.0454,0.981 9.5497,1.9239 0.636,1.1895 -0.1725,2.7275 -1.5864,3.0144 -0.582,0.12 -3.8439,0.4545 -7.249,0.7485 -3.4052,0.294 -6.9414,0.6495 -7.8581,0.792 -0.9165,0.135 -4.1316,0.354 -7.1437,0.471 -4.2309,0.165 -5.9418,0.4365 -7.5201,1.194 -1.7882,0.858 -2.3111,0.9135 -4.1892,0.4395 -1.6319,-0.411 -2.6259,-0.402 -4.1481,0.03 -1.101,0.3165 -4.3595,0.606 -7.2408,0.6435 -5.0153,0.06 -7.4766,0.465 -16.667,2.7059 -3.4828,0.849 -4.3036,0.8805 -9.6038,0.3585 -6.1533,-0.6045 -7.2467,-0.5295 -10.6385,0.735 -2.0149,0.75 -2.3076,0.7485 -4.8892,-0.03 -2.5427,-0.7695 -2.9735,-0.7755 -5.8173,-0.09 -2.8889,0.702 -4.7013,0.6195 -6.9369,-0.3105 -0.405,-0.168 -2.5481,-0.075 -4.7625,0.1935 -8.5209,1.0575 -14.828,1.4535 -16.3673,1.029 -1.098,-0.303 -2.0152,-0.2385 -3.1065,0.2205 -1.179,0.495 -3.3852,0.597 -9.2428,0.4215 -4.232,-0.12 -8.5953,-0.3615 -9.6965,-0.5235 -1.4685,-0.216 -2.8258,0 -5.0935,0.8145 -2.8443,1.02 -3.2552,1.056 -5.1416,0.453 -1.128,-0.36 -4.3833,-0.7425 -7.2345,-0.8505 -4.4608,-0.168 -5.5033,-0.06 -7.4703,0.7875 -2.4663,1.0605 -4.7568,1.257 -6.1267,0.5235 -1.0665,-0.57 -7.332,0.01 -12.872,1.1835 -3.7887,0.8055 -4.1644,0.8085 -6.2622,0.06 -3.9529,-1.404 -6.2032,-1.4865 -9.2716,-0.3375 -1.5273,0.5715 -3.6437,1.005 -4.7031,0.9645 -1.059,-0.045 -2.09,-0.06 -2.2901,-0.03 -0.201,0.03 0.1665,0.8475 0.8145,1.8301 0.648,0.9825 1.41,2.8665 1.6919,4.1871 l 0.513,2.4012 2.7202,0.624 c 3.2265,0.7395 5.3625,0.7845 13.9122,0.291 4.3764,-0.2535 7.2398,-0.198 8.9675,0.174 1.9198,0.4125 3.3121,0.408 5.715,-0.015 3.8215,-0.6735 4.4259,-0.6705 9.6063,0.06 5.1082,0.717 5.0605,0.717 10.4775,0 5.1513,-0.6795 10.5766,-0.693 14.6502,-0.045 1.768,0.285 4.44,0.2805 7.2867,-0.012 8.4048,-0.864 11.371,-0.9885 12.6964,-0.534 0.873,0.3 4.2401,0.231 9.896,-0.1995 4.7149,-0.36 9.1227,-0.555 9.7953,-0.432 0.672,0.12 2.4942,0.045 4.048,-0.1815 2.0379,-0.291 3.7128,-0.2085 6.0087,0.2985 2.4222,0.534 3.618,0.582 5.0007,0.198 2.7596,-0.7665 5.3649,-0.615 8.5013,0.495 2.5185,0.891 3.1006,0.939 5.1279,0.426 1.3035,-0.33 3.1881,-0.444 4.383,-0.2655 1.224,0.183 2.898,0.075 4.0246,-0.264 1.5231,-0.456 2.454,-0.4515 4.4277,0.015 2.2423,0.537 2.803,0.4965 5.4597,-0.4005 2.8024,-0.945 3.0796,-0.9585 5.1844,-0.243 1.5308,0.5205 2.76,0.639 3.9449,0.381 3.0996,-0.672 9.6942,-0.5685 12.2832,0.1935 2.28,0.672 2.6746,0.66 5.2387,-0.1575 2.6625,-0.849 3.8145,-0.903 13.2506,-0.624 1.0485,0.03 3.0837,-0.105 4.5244,-0.3 1.8831,-0.2565 3.5129,-0.135 5.7987,0.4425 2.91,0.7305 3.3653,0.735 5.3744,0.06 2.5708,-0.873 5.9061,-0.954 9.3021,-0.225 1.9902,0.4275 2.764,0.384 4.3194,-0.2385 2.3101,-0.924 5.4163,-0.9735 7.8877,-0.12 1.0155,0.3495 2.7531,0.5415 3.8621,0.4275 1.1085,-0.12 2.6614,0.015 3.4498,0.2925 1.2555,0.438 1.5014,0.3735 1.9778,-0.5175 0.2985,-0.5595 0.7095,-4.1373 0.9105,-7.9514 0.201,-3.814 0.5205,-7.537 0.708,-8.2734 0.189,-0.7365 0.075,-2.5834 -0.2445,-4.1049 -0.483,-2.2761 -0.468,-3.2205 0.09,-5.3289 0.4245,-1.6156 0.6045,-4.0581 0.486,-6.6106 -0.105,-2.2265 -0.2625,-7.1556 -0.354,-10.9538 -0.09,-3.798 -0.3495,-7.653 -0.5715,-8.5665 -0.2235,-0.9135 -0.2355,-2.9494 -0.03,-4.5244 0.372,-2.8293 1.329,-11.9424 1.35,-12.8646 0.01,-0.2625 -0.135,-1.485 -0.3045,-2.7185 -0.225,-1.6036 -0.09,-2.8137 0.4875,-4.2484 0.789,-1.973 0.7815,-2.0525 -0.4605,-4.8203 -1.239,-2.7597 -1.251,-2.8918 -0.666,-6.824 0.483,-3.2409 0.48,-4.2611 -0.013,-5.3199 -1.2495,-2.6867 -1.4355,-4.1289 -0.9345,-7.2392 0.375,-2.3218 0.3495,-4.0692 -0.09,-6.8323 -0.5235,-3.2481 -0.4875,-4.3934 0.285,-9.1511 0.852,-5.2423 0.852,-5.5068 0.03,-7.3356 -0.762,-1.69 -0.8055,-2.5038 -0.3945,-7.4464 0.2835,-3.413 0.2985,-7.5015 0.03,-10.6211 -0.345,-4.1032 -0.2835,-5.6433 0.3225,-8.0634 0.624,-2.4886 0.6555,-3.4992 0.1935,-6.0121 -0.4185,-2.2716 -0.423,-4.0496 -0.015,-7.1708 0.501,-3.8832 0.471,-4.2778 -0.48,-6.1323 -1.239,-2.416 -1.3125,-5.3653 -0.1815,-7.2801 0.774,-1.3095 0.7845,-1.6027 0.135,-3.5416 -0.7215,-2.1375 -0.708,-2.6381 0.4095,-15.8036 0.1725,-2.0262 0.015,-3.1377 -0.591,-4.2862 -1.0395,-1.9574 -0.9945,-6.3894 0.105,-10.31 0.675,-2.4066 0.711,-3.2227 0.225,-5.2446 -0.489,-2.0412 -0.4545,-2.7561 0.24,-4.8469 0.801,-2.4111 0.7965,-2.4852 -0.258,-4.3625 -0.9615,-1.7094 -1.038,-2.2906 -0.7335,-5.5407 0.186,-1.9969 0.333,-3.9523 0.3255,-4.3453 -0.01,-0.393 -0.165,-5.2149 -0.3495,-10.7156 -0.435,-12.9577 -0.426,-13.9612 0.15,-16.0018 0.774,-2.7456 0.39,-17.7458 -0.546,-21.3084 -0.666,-2.5389 -0.702,-3.4247 -0.225,-5.5574 0.483,-2.1571 0.4515,-2.8296 -0.213,-4.4904 -0.924,-2.3079 -1.002,-5.3835 -0.2115,-8.3361 0.4785,-1.7913 0.441,-2.5371 -0.2385,-4.6921 -1.059,-3.3597 -1.0185,-5.1978 0.1635,-7.5147 0.846,-1.6568 0.9105,-2.2536 0.507,-4.6244 -0.255,-1.497 -0.603,-4.4527 -0.774,-6.5679 -0.306,-3.7741 -0.2775,-3.9109 1.4775,-7.3537 1.041,-2.0427 2.779,-4.4685 4.1607,-5.8074 1.305,-1.2645 2.2876,-2.3802 2.1834,-2.4794 -0.3045,-0.2895 -9.4676,0.6 -12.3338,1.1955 -1.44,0.3 -4.3707,0.6105 -6.5109,0.69 -2.7738,0.105 -4.2727,0.3945 -5.2188,1.014 -1.0635,0.6975 -2.284,0.8685 -6.1551,0.8685 -3.5907,0 -5.0491,0.183 -5.6908,0.714 -0.669,0.555 -2.5272,0.7425 -8.2889,0.8385 -13.5436,0.225 -17.4102,0.432 -19.2058,1.0245 -0.978,0.3225 -2.2199,0.447 -2.7593,0.276 -0.54,-0.171 -2.0265,-0.045 -3.3045,0.285 -1.9444,0.498 -2.8156,0.4755 -5.337,-0.135 -2.8509,-0.6945 -6.7704,-0.7485 -18.4914,-0.252 -2.1019,0.09 -2.9299,-0.105 -4.191,-1.0095 -1.0785,-0.768 -1.9006,-1.02 -2.6194,-0.801 -1.326,0.405 -9.0324,1.107 -17.9545,1.6355 -6.1911,0.3675 -7.2336,0.3135 -10.0739,-0.5175 -2.9718,-0.87 -3.3246,-0.8805 -5.692,-0.177 -2.5847,0.768 -10.1066,0.66 -12.8117,-0.183 -0.657,-0.204 -1.7277,-0.1695 -2.3812,0.075 -1.068,0.4035 -6.4958,0.8895 -10.2369,0.9165 -0.786,0.01 -4.8578,-0.24 -9.0488,-0.5445 -4.191,-0.306 -9.1201,-0.4095 -10.9537,-0.2295 -1.8336,0.1785 -7.4057,0.393 -12.3825,0.474 -5.0114,0.09 -9.6504,0.3825 -10.3973,0.6705 -0.96,0.3705 -3.1728,0.3825 -7.6759,0.045 -5.0594,-0.384 -6.6983,-0.351 -8.1767,0.1635 -1.3545,0.471 -5.1409,0.654 -14.166,0.6855 -8.205,0.03 -13.0971,0.2415 -14.6535,0.6405 -1.762,0.4515 -2.9485,0.4725 -4.8277,0.09 -2.6262,-0.5415 -6.5816,0 -11.3844,1.5631 -1.892,0.615 -2.9621,0.6405 -7.1438,0.165 -2.7052,-0.3075 -6.4186,-0.606 -8.2522,-0.6645 -1.8336,-0.06 -4.5303,-0.258 -5.9928,-0.444 -2.1258,-0.27 -3.156,-0.135 -5.1374,0.639 -3.0696,1.2105 -4.0282,1.209 -6.7087,-0.01 l -2.1225,-0.963 -2.837,1.2735 c -2.7276,1.224 -2.9581,1.2495 -5.9818,0.6795 -3.0143,-0.5685 -8.3819,-0.453 -12.6017,0.2715 -1.0305,0.177 -2.9388,0.06 -4.2979,-0.2685 -2.0427,-0.4905 -2.8466,-0.4665 -4.8867,0.135 -2.4812,0.7365 -4.5956,0.567 -6.6539,-0.5355 -0.573,-0.3075 -1.9905,-0.4245 -3.3225,-0.276 -1.4895,0.1665 -3.0378,0 -4.3188,-0.4605 -1.5276,-0.552 -2.4076,-0.6075 -3.7464,-0.2385 -0.963,0.2655 -2.2641,0.354 -2.8927,0.1965 -0.6285,-0.1575 -2.3682,0.075 -3.8658,0.504 -2.4297,0.7065 -3.3675,0.726 -8.7086,0.1815 -5.9752,-0.609 -6.8986,-0.5685 -10.9366,0.4815 -2.2646,0.588 -12.1739,0.264 -14.7836,-0.4845 -0.8745,-0.2505 -2.2731,-0.156 -3.8488,0.2595 -1.8083,0.477 -5.0106,0.612 -11.8782,0.501 -5.1714,-0.09 -9.6099,-0.015 -9.8633,0.135 -0.486,0.3105 -0.7665,1.772 -1.4985,7.7874 -0.246,2.0256 -0.5685,3.8781 -0.7155,4.1166 -0.15,0.2385 0.045,1.341 0.4425,2.4492 0.9165,2.5965 0.8985,4.2669 -0.075,6.6927 -0.753,1.8822 -0.7425,2.0592 0.282,4.53 1.2075,2.9124 1.5209,8.3312 0.582,10.0619 -0.435,0.801 -0.4515,2.5119 -0.075,7.1437 1.266,15.5211 1.4715,19.7367 1.1655,23.9499 -0.18,2.4885 -0.2925,5.8452 -0.2505,7.4594 0.045,1.7055 -0.2205,3.6502 -0.636,4.6428 -0.5505,1.32 -0.5985,2.0397 -0.2055,3.166 0.468,1.344 0.411,2.6652 -0.3885,8.8181 -0.15,1.1415 0.015,2.6125 0.411,3.5718 0.8685,2.1394 0.81,23.0011 -0.075,25.1283 -0.42,1.014 -0.4515,2.2767 -0.12,4.7028 0.252,1.8237 0.321,4.1544 0.1515,5.1793 -0.1695,1.0245 -0.2355,3.2565 -0.15,4.959 0.09,1.7027 0.2355,7.382 0.3285,12.6207 0.09,5.2388 0.3135,10.8116 0.4905,12.384 0.24,2.139 0.135,3.3233 -0.4485,4.7016 -0.9435,2.2572 -0.975,3.9687 -0.105,6.0734 0.5055,1.233 0.615,3.6544 0.4695,10.4166 -0.135,5.9818 0,9.5502 0.3945,11.1139 0.51,2.0106 0.4725,2.5854 -0.2955,4.5243 -1.269,3.2036 -1.461,6.8295 -0.537,10.1231 0.6315,2.2492 0.6795,3.1723 0.2535,4.7562 -0.4005,1.4865 -0.384,2.5288 0.06,4.2772 0.5115,1.9938 0.471,2.801 -0.2925,5.8649 -0.7575,3.0394 -0.8025,3.9196 -0.318,6.0925 0.312,1.3965 0.642,6.21 0.735,10.6959 0.09,4.4857 0.2895,8.3506 0.4365,8.5885 0.423,0.684 -0.5265,17.2775 -1.143,20.0076 -0.4695,2.0787 -0.435,2.7665 0.225,4.415 0.8865,2.2141 1.0125,6.0825 0.285,8.7025 -0.3705,1.3335 -0.318,2.4467 0.21,4.5243 0.738,2.8997 0.453,8.0553 -0.591,10.703 -0.36,0.9105 -0.3495,2.1111 0.03,4.1637 l 0.537,2.8845 3.9146,1.194 c 2.1529,0.657 4.4469,1.194 5.0977,1.194 0.651,0 2.3873,0.5505 3.8588,1.2255 1.4715,0.6735 3.9084,1.3455 5.4153,1.494 1.5069,0.15 3.3828,0.612 4.1686,1.029 0.786,0.4185 2.6075,1.1925 4.0482,1.7203 1.9028,0.6975 2.6582,1.233 2.7614,1.9544 0.1905,1.3365 -0.5715,1.8289 -3.9521,2.5551 -1.5715,0.3375 -4.3963,1.23 -6.2772,1.9849 -2.6878,1.0785 -4.1715,1.371 -6.9319,1.371 -2.4224,0 -4.5362,0.345 -6.812,1.113 -3.228,1.089 -3.3178,1.164 -4.1376,3.4529 -0.666,1.8612 -0.7335,2.6559 -0.3285,3.8862 0.2805,0.8505 0.4725,2.3508 0.4275,3.3337 -0.12,2.5254 -0.075,2.6378 0.771,2.3115 0.4185,-0.1605 2.2937,-0.531 4.1672,-0.822 z m 101.0376,-100.7006 c -1.488,-0.414 -4.8117,-0.666 -8.8551,-0.672 -5.1738,-0.01 -7.0191,-0.1965 -9.189,-0.9435 -2.0301,-0.699 -3.2206,-0.8415 -4.7181,-0.5685 -2.8209,0.516 -4.6309,0.014 -8.1045,-2.2497 -3.1122,-2.0277 -7.4892,-6.8925 -8.4409,-9.3821 -0.6585,-1.7245 -0.1635,-8.3209 0.8025,-10.6612 0.3735,-0.9075 1.047,-2.0549 1.4955,-2.5503 0.4485,-0.495 0.8475,-1.682 0.888,-2.6367 0.267,-6.3735 0.1785,-8.115 -0.5085,-10.0113 -0.9435,-2.6045 -0.9555,-4.6094 -0.045,-7.1966 0.6375,-1.8072 0.633,-2.2912 -0.045,-4.6263 -0.4695,-1.6144 -0.6495,-3.363 -0.471,-4.59 0.7335,-5.076 1.1865,-15.1411 0.735,-16.3293 -0.2625,-0.6885 -0.591,-2.8854 -0.7305,-4.8822 -0.135,-1.9966 -0.4815,-4.5316 -0.759,-5.6332 -0.3735,-1.485 -0.345,-2.8028 0.105,-5.0958 0.549,-2.7597 0.5205,-3.4064 -0.2655,-6.0006 -0.741,-2.4464 -0.795,-3.2622 -0.3405,-5.1435 0.642,-2.6583 0.8835,-15.4821 0.357,-18.9944 -0.2955,-1.9693 -0.1755,-2.9842 0.591,-5.0007 0.528,-1.392 1.3575,-3.5793 1.8436,-4.8619 0.486,-1.2825 1.461,-2.7623 2.1662,-3.2879 1.8921,-1.4085 9.9343,-2.6766 17.1135,-2.6971 4.2348,-0.012 6.5197,-0.228 7.7236,-0.732 2.1948,-0.9165 3.8981,-0.9015 7.7786,0.075 2.7103,0.681 3.7305,0.711 7.4797,0.2205 2.3879,-0.312 6.4847,-0.525 9.104,-0.4725 9.7411,0.1965 12.742,-0.015 15.2305,-1.0755 2.2074,-0.9405 2.6388,-0.9705 6.2259,-0.4365 2.12,0.315 6.089,0.531 8.8202,0.48 4.747,-0.09 8.4735,0.243 16.8721,1.5046 4.6023,0.6915 8.2589,0.7515 13.3604,0.222 3.1792,-0.33 4.0947,-0.2655 5.3509,0.3855 1.266,0.654 1.8659,0.696 3.6467,0.2475 1.173,-0.2955 3.0507,-0.396 4.1742,-0.225 1.1235,0.1725 3.4359,0.3945 5.1385,0.4965 1.7025,0.105 5.6673,0.4125 8.8106,0.693 3.1432,0.2805 7.9336,0.4905 10.6453,0.468 4.2525,-0.03 5.2281,-0.198 7.0956,-1.191 4.9125,-2.6119 8.3295,-1.104 11.2869,4.9802 l 1.8816,3.871 3.119,-0.12 c 1.7155,-0.06 7.5124,0.174 12.8823,0.5325 7.38,0.4935 10.5816,0.525 13.1169,0.135 2.2915,-0.357 3.9015,-0.3705 5.0833,-0.045 1.4235,0.393 12.4901,0.972 17.0423,0.891 3.6843,-0.06 21.4252,0.363 26.6699,0.645 1.44,0.075 5.4515,0.186 8.9129,0.243 5.8723,0.09 6.3297,0.1695 6.8344,1.113 0.927,1.7322 -0.6435,2.6933 -6.1402,3.7589 -2.6831,0.5205 -5.594,0.945 -6.4685,0.945 -0.8745,0 -2.5101,0.324 -3.6345,0.7215 -1.125,0.396 -2.4232,0.6015 -2.8864,0.4545 -0.4635,-0.15 -1.9812,0.06 -3.3734,0.4545 -3.6146,1.0305 -9.3532,2.0767 -11.5799,2.1112 -4.4934,0.075 -7.7384,0.4755 -9.4131,1.179 -0.9855,0.414 -3.9866,0.8895 -6.6675,1.0575 -2.8074,0.1755 -5.9211,0.681 -7.3428,1.194 -1.7469,0.6285 -3.1472,0.8085 -4.7913,0.6135 -1.8348,-0.2175 -2.7581,-0.06 -4.3922,0.78 -1.8985,0.969 -4.6132,1.446 -12.7006,2.2334 -1.7142,0.1665 -2.8923,0.01 -3.9419,-0.5355 -1.1955,-0.618 -1.8535,-0.675 -3.27,-0.282 -0.975,0.2715 -2.5693,0.4935 -3.5424,0.495 -2.3917,0 -2.9776,1.1475 -2.5434,4.963 0.1815,1.5938 0.3915,4.1835 0.4665,5.7552 0.075,1.5716 0.3045,4.1837 0.507,5.8047 0.2865,2.2827 0.195,3.3854 -0.408,4.8912 -1.05,2.6243 -0.978,4.4354 0.2685,6.8253 0.7995,1.5323 1.029,2.735 0.972,5.1006 -0.045,1.7027 -0.165,6.306 -0.276,10.2296 -0.105,3.9237 -0.09,7.4062 0.03,7.7391 0.1635,0.4275 1.488,0.6045 4.4988,0.6045 2.3985,0 4.722,0.2475 5.3069,0.567 0.5955,0.324 3.2824,0.6 6.2811,0.645 4.1856,0.06 5.6239,0.27 7.1437,1.0335 1.628,0.8175 3.5885,1.038 13.5711,1.5349 12.0893,0.6015 19.1913,1.41 20.0664,2.2848 0.7575,0.7575 0.015,2.4756 -1.167,2.7173 -2.8728,0.585 -10.7941,1.8379 -12.4698,1.9731 -2.119,0.171 -6.3862,0.7755 -11.43,1.6204 -1.8336,0.3075 -4.9629,0.7035 -6.9543,0.8805 -1.9912,0.177 -3.9495,0.5955 -4.3516,0.9285 -0.735,0.6105 -3.1251,0.7575 -10.0865,0.6225 -2.5603,-0.045 -4.7773,0.228 -6.9055,0.8655 -1.724,0.516 -3.5631,1.0065 -4.0871,1.0905 -1.293,0.2055 -1.4865,2.3264 -0.459,5.0195 0.7875,2.0607 0.774,3.8098 -0.06,8.0536 -0.2715,1.386 -0.1785,1.5249 1.218,1.8315 4.4268,0.972 7.6197,7.3617 6.2397,12.4866 -0.6705,2.4906 -3.5998,5.2058 -6.0805,5.6366 -0.9975,0.174 -3.9575,0.9735 -6.5769,1.7779 -5.2479,1.6121 -7.7379,1.7655 -18.3356,1.1295 -3.2743,-0.1965 -7.239,-0.336 -8.8107,-0.3105 -1.5715,0.03 -4.0362,0.06 -5.4768,0.09 -1.44,0.03 -3.1552,0.03 -3.81,0 -4.6528,-0.15 -13.4361,0.3 -15.0705,0.774 -1.086,0.3135 -3.2287,0.567 -4.7625,0.561 -1.5339,-0.01 -6.4323,0 -10.8852,0.015 -6.7627,0.015 -8.5276,-0.12 -10.7155,-0.8775 -2.2202,-0.7665 -2.8736,-0.816 -4.2863,-0.3285 -1.08,0.3735 -4.3504,0.546 -9.2869,0.492 -5.2601,-0.06 -8.0775,0.105 -9.0974,0.5235 -1.248,0.513 -8.6562,0.5865 -14.0007,0.135 -0.393,-0.03 -2.536,0.174 -4.7625,0.4605 -5.1876,0.6675 -8.2185,0.6075 -11.1919,-0.2205 z m 9.0488,-21.4983 c 4.2888,-0.219 24.2649,-0.2595 28.8132,-0.06 0.654,0.03 3.5251,-0.198 6.3784,-0.5055 4.8587,-0.5235 5.3811,-0.4935 8.228,0.453 3.3589,1.1175 8.2515,1.104 17.3023,-0.045 6.7001,-0.8535 24.5315,-0.723 26.7003,0.1935 1.3425,0.5685 2.1383,0.6135 3.81,0.2205 1.1625,-0.273 4.256,-0.5415 6.8753,-0.594 5.1363,-0.105 8.0613,-1.0455 8.6085,-2.7707 0.156,-0.492 0.03,-1.9833 -0.297,-3.3144 -0.342,-1.4265 -0.468,-3.76 -0.3075,-5.6826 l 0.273,-3.2623 -5.3298,0.192 c -2.9313,0.105 -7.0287,0.549 -9.1052,0.984 -3.1867,0.669 -4.375,0.7065 -7.62,0.246 -3.051,-0.4335 -4.5876,-0.4125 -7.4445,0.105 -2.3349,0.417 -4.2595,0.5025 -5.4768,0.2415 -1.182,-0.252 -2.877,-0.1935 -4.5778,0.1605 -2.972,0.618 -2.9126,0.6375 -8.6834,-2.8124 -4.333,-2.5905 -5.6965,-5.4156 -4.5925,-9.5155 0.8445,-3.1355 2.6317,-4.7946 5.7375,-5.3256 8.8399,-1.5117 13.9729,-2.022 21.193,-2.1066 5.0345,-0.06 8.7761,-0.324 9.8937,-0.7005 1.5327,-0.516 2.1818,-0.4845 4.4079,0.216 2.5931,0.816 3.176,0.8055 9.2729,-0.162 l 2.143,-0.3405 0.336,-4.7625 c 0.885,-12.5412 0.9075,-14.907 0.1575,-16.7028 -0.855,-2.0474 -0.933,-4.2428 -0.2235,-6.2792 0.4305,-1.236 0.321,-1.8217 -0.7335,-3.9034 -0.6825,-1.347 -1.5616,-2.5718 -1.9537,-2.7222 -0.3915,-0.15 -1.9511,0.075 -3.4646,0.498 -1.5136,0.4245 -3.7023,0.7725 -4.8639,0.771 -2.6697,-8e-4 -10.0455,1.6729 -12.7212,2.8867 -1.1205,0.5085 -2.8807,0.924 -3.9123,0.924 -1.032,0 -2.8824,0.342 -4.113,0.759 -1.5432,0.5235 -2.9923,0.666 -4.6714,0.456 -1.9353,-0.2415 -2.9201,-0.09 -4.8038,0.744 -2.1732,0.9615 -3.2181,1.056 -12.6093,1.149 -9.0994,0.09 -10.5528,0.213 -13.0525,1.116 -3.264,1.179 -6.3047,1.2975 -8.601,0.339 -1.77,-0.7395 -5.7863,-0.3765 -10.5354,0.951 -3.0618,0.8565 -4.017,0.849 -10.3698,-0.09 -4.836,-0.7095 -5.3622,-0.705 -7.7805,0.06 -2.1504,0.6765 -3.056,0.729 -5.2977,0.306 -1.4865,-0.2805 -4.5255,-0.6345 -6.752,-0.7875 -2.2266,-0.153 -5.2326,-0.6105 -6.6802,-1.017 -2.592,-0.7275 -2.6673,-0.72 -4.9524,0.495 -1.2765,0.678 -2.7423,1.2345 -3.2577,1.2345 -0.786,0 -0.8835,0.21 -0.6,1.3095 0.1845,0.72 0.447,3.9299 0.5805,7.1324 0.1845,4.4244 0.075,6.3219 -0.465,7.9021 -0.6735,1.9757 -0.6525,2.1962 0.423,4.4168 1.3095,2.7042 1.4325,4.9611 0.426,7.8136 -0.525,1.488 -0.6465,3.1743 -0.4575,6.3702 0.135,2.3903 0.339,8.1603 0.4365,12.8225 0.12,5.6665 0.3705,8.7058 0.753,9.1678 0.423,0.51 1.7779,0.7035 5.1588,0.738 2.5218,0.03 5.1208,0.231 5.7757,0.456 0.654,0.225 2.5836,0.294 4.2863,0.1545 1.7025,-0.135 5.4529,-0.3735 8.3343,-0.5205 z m 105.669,-79.8515 c 0.489,-4.7721 0.462,-4.7976 -5.9295,-5.5189 -1.9454,-0.219 -5.0372,-0.75 -6.8708,-1.179 -1.8336,-0.429 -4.2691,-0.963 -5.4123,-1.1865 -2.5597,-0.501 -4.1848,-1.9443 -3.522,-3.1287 0.6555,-1.17 6.3239,-3.5495 9.7857,-4.1069 1.8437,-0.297 3.7283,-0.996 5.0513,-1.8714 1.161,-0.768 2.8084,-1.6503 3.6621,-1.959 1.224,-0.4425 1.6167,-0.906 1.8583,-2.1946 0.168,-0.8985 0.228,-1.7114 0.135,-1.8066 -0.6045,-0.6045 -6.3933,-0.1905 -9.7,0.6945 -2.1222,0.567 -5.0154,1.017 -6.4293,0.9975 -4.7729,-0.06 -10.1316,0.6915 -11.5131,1.623 -1.023,0.69 -1.8093,0.825 -3.4796,0.5955 -1.7661,-0.2415 -2.4118,-0.105 -3.562,0.7425 -1.065,0.7875 -2.0082,1.0215 -3.9023,0.9705 -2.3608,-0.06 -4.5927,0.2865 -12.5559,1.9797 -2.5267,0.537 -3.8373,0.597 -5.1436,0.237 -1.2825,-0.354 -2.2254,-0.321 -3.515,0.12 -0.969,0.336 -3.262,0.651 -5.0956,0.7005 -1.8336,0.045 -4.4426,0.243 -5.7978,0.429 -1.7075,0.234 -3.0968,0.12 -4.5245,-0.363 -1.7646,-0.6 -2.3293,-0.6075 -3.9358,-0.045 -4.3388,1.504 -11.3208,1.8232 -18.1977,0.8325 -1.4655,-0.2115 -2.9322,0.045 -5.6747,0.9915 -2.9088,1.0035 -4.2162,1.2165 -6.1204,0.996 -6.0959,-0.7065 -13.2,-0.843 -14.565,-0.2775 -0.7695,0.3195 -2.4242,0.6105 -3.6767,0.6465 -2.0577,0.06 -2.2894,0.183 -2.4015,1.2585 -0.075,0.6555 -0.363,2.4094 -0.654,3.8989 -0.291,1.4895 -0.3885,3.4619 -0.216,4.3829 l 0.3135,1.6747 3.4355,-0.075 c 1.8895,-0.045 5.1499,0.204 7.2454,0.546 2.0955,0.3405 4.3458,0.63 5.0007,0.6405 1.961,0.03 7.8941,-0.9255 8.8617,-1.434 1.131,-0.5925 13.8213,-0.6015 15.4176,-0.011 0.7575,0.2805 2.2101,0.237 4.0481,-0.12 2.3095,-0.4485 3.4225,-0.426 5.7244,0.12 1.9574,0.459 3.4577,0.54 4.7625,0.2565 2.0378,-0.4425 5.6924,-0.15 8.213,0.657 1.32,0.423 1.9303,0.306 4.1832,-0.7965 2.2545,-1.1025 3.0105,-1.2465 5.205,-0.9885 1.413,0.1665 3.6126,0.06 4.8927,-0.2355 1.906,-0.4395 2.8057,-0.3975 4.9908,0.2385 1.4655,0.426 4.2469,0.7755 6.1795,0.7755 1.9326,0 4.6857,0.351 6.1179,0.7815 1.4325,0.429 3.6222,0.75 4.8663,0.7125 1.245,-0.045 3.3873,-0.105 4.7625,-0.1545 4.8359,-0.165 14.909,0.5505 17.2641,1.227 1.3095,0.3765 4.1198,0.702 6.2445,0.726 l 3.8634,0.045 z m 39.0769,32.4555 c -2.3647,-1.449 -5.5966,-4.5538 -6.4363,-6.1818 -1.6652,-3.228 -0.978,-8.2302 1.5195,-11.0757 1.9318,-2.2002 4.0951,-2.8479 8.0029,-2.3961 3.6282,0.42 4.553,0.417 8.181,-0.015 2.0082,-0.243 3.0242,-0.135 4.1436,0.444 0.816,0.4215 2.0912,0.7665 2.8347,0.7665 0.744,0 2.1924,0.429 3.2199,0.9525 1.248,0.636 2.8086,0.9525 4.7024,0.9525 2.9347,0 5.9248,0.7095 11.2744,2.6735 2.2746,0.8355 3.6915,1.0755 5.2388,0.8895 1.5219,-0.183 2.9947,0.06 5.2164,0.8475 2.6525,0.945 3.1166,1.2825 3.2431,2.3617 0.171,1.464 -0.6045,2.0043 -3.5979,2.5002 -1.1115,0.1845 -2.1424,0.531 -2.2903,0.7695 -0.15,0.2385 -0.9525,0.438 -1.7885,0.4425 -0.8355,0 -2.3769,0.3165 -3.4246,0.693 -1.047,0.378 -2.8227,0.696 -3.9444,0.7065 -1.122,0.012 -2.8361,0.3585 -3.81,0.7695 -1.3125,0.555 -2.541,0.669 -4.7519,0.438 -2.7558,-0.288 -3.0939,-0.216 -4.4725,0.9435 -1.371,1.1535 -1.8023,1.2465 -5.3532,1.1565 -2.3669,-0.06 -5.1522,0.2175 -7.1955,0.7185 -4.5639,1.119 -9.2691,1.41 -10.5116,0.648 z m 181.6044,167.7139 2.9766,-0.6585 v -1.9632 c 0,-1.08 0.243,-2.658 0.5385,-3.5076 0.4395,-1.26 0.378,-2.0154 -0.33,-4.1013 -0.822,-2.4178 -0.8265,-2.6938 -0.075,-5.0751 0.981,-3.1104 0.6615,-4.8814 -0.7935,-4.4169 -0.5535,0.177 -1.649,0.4395 -2.4348,0.5835 -0.786,0.15 -1.8573,0.534 -2.3813,0.8655 -0.6555,0.414 -2.47,0.552 -5.8071,0.444 -3.9703,-0.135 -4.968,-0.015 -5.4769,0.5925 -0.582,0.702 -0.669,4.5398 -0.261,11.6762 0.06,1.113 -0.045,2.92 -0.2415,4.015 -0.327,1.8224 -0.267,2.0075 0.714,2.1876 2.1738,0.399 10.6872,0 13.5735,-0.642 z m 32.6548,-0.045 c 1.8816,-0.291 4.5462,-0.5055 5.9214,-0.4755 13.3331,0.288 33.8249,-0.201 35.8025,-0.8535 1.242,-0.4095 2.605,-0.486 4.1563,-0.231 2.6598,0.435 3.9605,0.3345 4.826,-0.375 0.9555,-0.783 3.7822,-6.1395 4.1358,-7.8354 0.192,-0.9195 1.5618,-2.9043 3.4525,-5.0005 1.724,-1.9116 3.752,-4.4399 4.5065,-5.6187 0.7545,-1.179 2.2416,-3.0003 3.3048,-4.0481 1.0635,-1.047 2.8333,-3.0837 3.9337,-4.5244 2.3427,-3.0669 9.3474,-8.1281 12.9153,-9.3317 1.3095,-0.4425 4.0374,-1.6305 6.0617,-2.6413 2.0241,-1.011 4.2567,-1.8383 4.9611,-1.8383 0.705,0 2.6707,-0.7635 4.3696,-1.6978 1.9416,-1.0665 3.9908,-1.7895 5.5164,-1.9442 3.2318,-0.3285 4.952,-1.0245 5.3088,-2.1478 0.162,-0.5085 0.9765,-1.6109 1.8122,-2.4492 0.8355,-0.8385 2.0154,-2.3307 2.6227,-3.3167 0.6075,-0.9855 1.9956,-2.4295 3.0852,-3.2082 3.4481,-2.4639 5.8947,-4.9359 6.9275,-6.9994 1.23,-2.4581 4.4761,-4.7828 7.455,-5.3393 1.239,-0.231 2.7513,-0.93 3.4696,-1.6012 0.7005,-0.6555 1.9704,-1.5426 2.8218,-1.9721 1.404,-0.708 1.5522,-0.99 1.5953,-3.0309 0.03,-1.2375 0.204,-2.7858 0.396,-3.4407 0.2055,-0.705 0.075,-1.9672 -0.327,-3.0955 -0.5025,-1.4175 -0.6015,-3.1854 -0.3855,-6.9057 0.1695,-2.914 0.09,-5.6911 -0.1935,-6.6556 -0.2655,-0.9105 -0.4695,-3.2678 -0.453,-5.2388 0.03,-3.8028 0.333,-14.9982 0.4965,-18.5856 0.06,-1.179 -0.1845,-3.9786 -0.531,-6.2218 -0.5535,-3.5946 -0.537,-4.3461 0.135,-6.3297 0.4215,-1.2375 0.666,-2.5151 0.5415,-2.8382 -0.12,-0.3225 0.105,-1.6537 0.4935,-2.9572 0.396,-1.3035 0.7215,-2.9492 0.7245,-3.6572 0,-0.708 0.2565,-1.8381 0.5625,-2.5113 0.468,-1.0275 0.3975,-1.5091 -0.4395,-2.9989 -0.549,-0.9765 -1.4625,-3.0221 -2.033,-4.5462 -0.57,-1.5242 -1.3245,-2.8817 -1.6755,-3.0165 -1.173,-0.45 -2.263,-2.6981 -3.8164,-7.8662 -1.014,-3.3759 -2.1914,-6.0976 -3.4523,-7.9858 -1.0725,-1.6059 -2.0596,-3.759 -2.2468,-4.8999 -0.4545,-2.7678 -3.186,-8.5916 -5.4075,-11.5283 -2.3844,-3.1522 -2.3792,-3.1416 -2.9,-5.8873 -0.3315,-1.7499 -1.203,-3.36 -3.3807,-6.2504 -1.6135,-2.1412 -3.1599,-3.8178 -3.4365,-3.7257 -0.276,0.09 -0.8715,1.296 -1.3215,2.6766 -0.45,1.38 -1.3395,3.0825 -1.9774,3.7836 -0.6375,0.702 -1.5479,1.9178 -2.0225,2.7036 -1.5363,2.5442 -3.2904,4.0998 -6.8116,6.0408 -2.2593,1.245 -3.4527,2.1935 -3.4527,2.7425 0,0.462 -0.5295,1.5672 -1.1775,2.4573 -0.648,0.8895 -1.6902,2.6898 -2.3169,3.9994 -1.2075,2.5226 -2.3661,3.7466 -5.0862,5.3703 -0.921,0.5505 -2.922,2.4113 -4.4457,4.1361 -1.5239,1.7249 -3.6053,3.5619 -4.6254,4.0824 -1.02,0.5205 -2.1618,1.5402 -2.5373,2.2662 -0.753,1.4565 -5.2153,5.8143 -5.9535,5.8143 -0.2565,0 -1.6584,1.125 -3.1155,2.5004 -1.458,1.3755 -3.5605,3.348 -4.6741,4.3839 l -2.0246,1.8837 1.905,0.351 c 1.047,0.1935 3.4052,0.3645 5.2388,0.381 1.9741,0.015 3.8901,0.321 4.6978,0.7425 1.8078,0.9435 2.5122,0.8985 4.139,-0.2595 1.2495,-0.8895 2.2374,-0.987 11.7535,-1.164 5.7143,-0.105 11.2415,-6e-4 12.2828,0.2355 1.1325,0.2565 4.2504,0.249 7.7622,-0.015 6.4581,-0.4905 7.5879,-0.261 10.8196,2.2039 1.1955,0.912 2.4108,1.3425 4.1673,1.479 2.2502,0.174 3.9873,0.774 10.2348,3.5297 3.5256,1.5555 3.2712,3.4162 -0.6615,4.8324 -3.8209,1.3755 -6.9982,2.875 -8.6085,4.0609 -1.4115,1.0395 -2.5741,1.3275 -9.915,2.4611 -1.3095,0.2025 -3.5194,0.6315 -4.9104,0.954 -2.5575,0.5925 -3.6423,0.5475 -10.0914,-0.4215 -3.1815,-0.4785 -4.0318,-0.4245 -7.7796,0.492 -3.5946,0.879 -4.4845,0.945 -6.1093,0.459 -1.4685,-0.4395 -3.1344,-0.4425 -7.3046,-0.013 -4.8129,0.4965 -5.6749,0.4665 -7.8936,-0.27 -2.6686,-0.8865 -7.2715,-0.771 -12.9607,0.3255 -2.3246,0.4485 -3.2543,0.396 -5.9267,-0.327 -3.4927,-0.945 -6.2622,-0.9795 -16.7091,-0.2025 -6.0672,0.4515 -7.0539,0.417 -8.9482,-0.306 -1.7658,-0.675 -3.1118,-0.7635 -7.8893,-0.5235 -4.3567,0.219 -6.1431,0.135 -7.3312,-0.3675 -1.5416,-0.6435 -4.4793,-0.5205 -11.6508,0.492 -1.5044,0.213 -2.7194,0.075 -4.0134,-0.471 -1.02,-0.426 -2.0064,-0.6105 -2.1903,-0.408 -0.8505,0.936 -1.5813,4.518 -1.6305,7.9881 -0.03,2.0955 -0.234,4.6174 -0.453,5.6043 -0.3045,1.3695 -0.15,2.587 0.6585,5.1447 0.78,2.4703 0.978,3.9381 0.7545,5.5876 -0.498,3.6849 -0.654,13.8062 -0.2415,15.6366 0.2565,1.134 0.1605,2.4477 -0.2865,3.9165 -0.369,1.215 -0.678,3.0675 -0.687,4.1152 -0.01,1.0485 -0.225,2.8067 -0.48,3.9089 -0.348,1.5054 -0.273,2.8083 0.2985,5.2387 0.4185,1.7792 0.7425,5.0565 0.7185,7.283 -0.03,2.2266 -0.06,5.334 -0.075,6.9057 -0.015,1.5715 0.075,5.1078 0.198,7.858 0.12,2.7504 0.015,5.975 -0.237,7.1658 -0.3045,1.416 -0.3045,2.8871 0,4.2521 0.354,1.5733 0.303,2.5639 -0.207,4.0261 -1.269,3.6408 -1.3035,3.6122 4.1918,3.5186 6.4117,-0.105 13.6072,0.525 15.2164,1.341 0.7065,0.3585 2.1696,0.6525 3.2498,0.6525 1.08,0 3.5598,0.5355 5.5105,1.191 1.9508,0.6555 4.0676,1.191 4.7042,1.191 1.6825,0 6.1858,1.242 7.476,2.062 0.6105,0.3885 2.4466,0.8535 4.0806,1.035 3.4047,0.378 5.4988,1.6721 5.2704,3.2582 -0.195,1.3515 -4.7252,2.6383 -11.0988,3.1518 -2.6193,0.2115 -5.5112,0.6225 -6.4263,0.915 -0.915,0.2925 -3.4974,0.531 -5.7387,0.531 -2.2413,0 -4.2848,0.21 -4.5411,0.4665 -0.825,0.825 -13.9529,3.3313 -18.1149,3.4587 -4.5971,0.135 -4.226,-0.297 -4.6848,5.5227 -0.2805,3.5563 0.282,6.9117 1.2585,7.5154 0.978,0.6045 3.4612,1.059 4.5849,0.84 0.606,-0.12 2.6427,-0.4545 4.5243,-0.7455 z m 192.9686,-2.7769 c 3.9183,-1.3485 12.4299,-1.3425 15.411,0.011 2.458,1.116 4.3744,1.1865 7.2451,0.267 1.1595,-0.372 4.1248,-0.7875 6.589,-0.927 2.8742,-0.1605 4.6145,-0.468 4.8548,-0.858 0.2055,-0.333 0.501,-2.006 0.6555,-3.717 0.1545,-1.7109 0.3945,-4.0233 0.5325,-5.1384 0.312,-2.5149 -0.4335,-2.9345 -3.5723,-2.0118 -1.2045,0.354 -3.2604,0.6915 -4.57,0.75 -1.3095,0.06 -4.1442,0.3405 -6.2988,0.6285 -3.3724,0.4485 -4.2009,0.411 -5.9532,-0.276 -1.6494,-0.6465 -3.9327,-0.81 -12.0367,-0.867 -6.6684,-0.045 -10.4658,-0.264 -11.3955,-0.6525 -0.7665,-0.321 -3.9504,-0.6735 -7.0746,-0.7845 -3.3654,-0.12 -5.9561,-0.429 -6.3564,-0.762 -0.372,-0.309 -0.7605,-0.477 -0.8625,-0.3735 -0.258,0.258 4.0765,6.8596 6.22,9.4728 0.966,1.1775 2.0564,2.8578 2.4219,3.7326 0.513,1.23 0.849,1.5079 1.4745,1.227 1.8993,-0.855 5.2143,-0.7545 7.2969,0.222 2.5652,1.2015 2.1122,1.197 5.4189,0.06 z m -22.6593,-16.8707 c 0.414,-0.3735 3.1092,-1.4655 5.9905,-2.4265 2.8814,-0.9615 5.4638,-1.9328 5.7387,-2.1584 0.2745,-0.225 1.4535,-0.558 2.6193,-0.7395 1.1655,-0.1815 2.5422,-0.6195 3.059,-0.9735 0.516,-0.354 1.4475,-0.6435 2.0695,-0.6435 0.621,0 1.7507,-0.441 2.5089,-0.981 0.759,-0.54 2.1845,-1.107 3.1692,-1.2585 0.984,-0.153 2.6088,-0.687 3.6089,-1.188 1.0005,-0.501 2.929,-1.0335 4.2862,-1.1835 1.3575,-0.15 3.1847,-0.7035 4.0608,-1.2315 1.4085,-0.8475 2.1455,-0.9285 6.3663,-0.6945 4.114,0.2265 5.2869,0.105 8.4925,-0.8505 2.0457,-0.612 4.1394,-1.0035 4.6529,-0.87 1.3935,0.3645 1.5462,-0.3345 0.7455,-3.4008 -0.5955,-2.2812 -0.6405,-3.7162 -0.2475,-8.0473 0.489,-5.4011 0.3225,-7.1315 -1.227,-12.7704 -0.4305,-1.5654 -0.6255,-3.4464 -0.462,-4.4532 0.1575,-0.9735 -0.03,-2.9747 -0.432,-4.5351 -0.555,-2.166 -0.6,-3.2181 -0.204,-4.6925 0.3735,-1.3845 0.3615,-2.4948 -0.045,-4.0926 -0.4605,-1.8303 -0.4125,-2.7057 0.2895,-5.3004 0.6975,-2.5753 0.7455,-3.4275 0.282,-4.9735 -0.525,-1.75 -0.672,-1.8655 -2.3928,-1.8655 -1.008,0 -2.7681,0.4245 -3.9101,0.942 -2.7403,1.2434 -5.464,1.2194 -7.5528,-0.06 -0.9164,-0.564 -2.6303,-1.2105 -3.808,-1.434 -1.374,-0.2625 -3.5547,-1.386 -6.0885,-3.1389 -2.1711,-1.502 -4.7437,-3.1268 -5.7169,-3.6107 -2.3655,-1.176 -4.193,-2.9548 -4.902,-4.7721 -0.3195,-0.8205 -1.6016,-3.6351 -2.8476,-6.2544 -3.0617,-6.4365 -4.7357,-11.4993 -4.736,-14.3233 -1e-4,-1.29 -0.429,-3.4728 -0.9525,-4.8509 -1.047,-2.7544 -1.2705,-7.7607 -0.474,-10.6267 0.2595,-0.936 1.0095,-2.2059 1.6643,-2.8215 1.9587,-1.8401 1.5577,-2.8073 -3.3188,-8.0079 -2.6764,-2.8544 -4.621,-5.3507 -4.783,-6.1404 -0.15,-0.732 -0.582,-1.8663 -0.96,-2.5212 -0.378,-0.6555 -1.203,-2.2707 -1.8341,-3.5909 -0.6315,-1.32 -1.4805,-2.6764 -1.8867,-3.0141 -0.4065,-0.3375 -1.119,-1.6149 -1.5825,-2.8384 -0.4635,-1.224 -1.335,-2.9555 -1.9366,-3.8486 -0.6015,-0.8925 -1.2315,-2.488 -1.401,-3.5442 -0.207,-1.293 -0.8445,-2.4577 -1.9515,-3.5647 -2.1333,-2.1332 -2.967,-4.2045 -2.967,-7.3703 0,-2.3743 -0.165,-2.7487 -2.2623,-5.1465 -1.2435,-1.422 -2.9757,-4.1881 -3.8478,-6.1464 -0.873,-1.9581 -2.4084,-5.2747 -3.4139,-7.3702 -3.2557,-6.7853 -7.1448,-15.4122 -7.1448,-15.8489 0,-0.234 -0.7395,-1.3755 -1.644,-2.5356 -0.9315,-1.1955 -1.9506,-3.2871 -2.3511,-4.825 -0.3885,-1.4925 -1.6315,-4.2284 -2.7613,-6.0782 -1.1295,-1.8498 -2.5901,-4.3921 -3.2448,-5.6496 -0.6555,-1.257 -2.0909,-3.3054 -3.1911,-4.5507 -1.101,-1.245 -2.2593,-3.0487 -2.5758,-4.0077 -0.3165,-0.9585 -1.077,-2.6872 -1.6905,-3.8407 -0.6135,-1.1535 -1.116,-2.6549 -1.116,-3.3362 -6e-4,-0.681 -0.615,-2.4174 -1.365,-3.8581 -0.75,-1.44 -1.7228,-3.7178 -2.1608,-5.0603 -0.438,-1.3425 -1.7524,-3.6721 -2.9209,-5.1769 -1.1685,-1.505 -2.1305,-2.9783 -2.1378,-3.2741 -0.01,-0.2955 -0.6465,-1.3755 -1.4205,-2.3986 -0.774,-1.023 -1.5491,-2.6307 -1.7216,-3.572 -0.1725,-0.9405 -0.903,-2.3893 -1.624,-3.2181 -0.72,-0.8295 -1.5693,-2.2912 -1.8857,-3.2499 -0.3315,-1.0035 -1.8232,-2.9893 -3.5199,-4.6842 -4.7008,-4.6956 -4.8256,-4.7733 -8.2159,-5.1243 -2.7609,-0.285 -3.3206,-0.5265 -4.9808,-2.1483 -1.8126,-1.77 -1.9182,-1.8067 -3.4125,-1.188 -3.5614,1.4745 -7.1286,1.0695 -11.2669,-1.2795 -1.9736,-1.1205 -2.2857,-1.161 -5.0007,-0.6735 -1.5927,0.2865 -4.6103,0.4005 -6.7058,0.255 -3.1251,-0.2175 -4.2393,-0.09 -6.1987,0.687 -2.1093,0.8415 -3.1281,0.9225 -8.7119,0.696 -5.2501,-0.213 -6.8049,-0.105 -9.1623,0.603 -2.5548,0.774 -3.178,0.795 -6.2205,0.222 -2.8228,-0.5325 -3.6286,-0.5325 -4.8795,0 -2.4651,1.047 -6.2223,1.14 -9.1356,0.2235 -2.5116,-0.7905 -2.7664,-0.789 -5.4336,0.015 -2.0376,0.6165 -3.5542,0.765 -5.5794,0.5415 -1.5295,-0.168 -2.9953,-0.3195 -3.2572,-0.336 -0.2625,-0.015 -1.4205,0.318 -2.5751,0.7425 -1.7398,0.6405 -2.5138,0.681 -4.5244,0.237 -3.2523,-0.717 -9.1784,-1.4895 -11.2361,-1.4625 -2.8329,0.03 -11.5864,0.849 -13.1748,1.2225 -1.0755,0.2535 -2.3712,0.045 -4.5244,-0.7155 -2.7342,-0.9705 -3.9447,-1.0755 -12.8826,-1.1235 -12.2337,-0.06 -11.9049,-0.228 -10.6584,5.2879 0.4605,2.0399 1.1475,4.6838 1.5264,5.8755 1.0035,3.1571 0.798,25.9815 -0.2655,29.5008 -0.7005,2.3177 -0.63,3.9602 0.291,6.7742 0.6585,2.0148 0.699,2.7771 0.2385,4.5015 -0.6855,2.5633 -0.7035,5.08 -0.06,7.4202 0.336,1.209 0.342,2.344 0.015,3.514 -0.396,1.434 -0.309,2.0583 0.516,3.6747 0.9465,1.8549 0.9675,2.2278 0.4515,7.916 -0.729,8.0281 -0.678,11.4708 0.219,14.9346 0.7845,3.0298 0.711,4.8846 -0.3315,8.2923 -0.492,1.6096 -0.501,2.5782 -0.045,4.7911 0.678,3.2787 0.756,10.0307 0.135,11.6612 -0.792,2.0845 -0.5025,23.3499 0.357,26.1778 0.2595,0.852 0.5985,3.4193 0.753,5.7054 0.2355,3.4511 0.12,4.5756 -0.654,6.6225 -0.5145,1.356 -0.7935,2.6967 -0.6195,2.9793 0.5265,0.8505 0.5625,16.6011 0.045,18.2895 -0.372,1.206 -0.3075,2.0054 0.2745,3.4625 1.005,2.5096 1.041,11.7373 0.06,14.9977 -0.6705,2.2295 -0.6525,2.4018 0.4605,4.3943 1.6143,2.8882 1.8625,4.7323 0.984,7.3179 -0.648,1.9086 -0.6585,2.4082 -0.09,3.8022 0.492,1.1895 0.618,3.3302 0.4905,8.2723 -0.2055,7.9147 -0.4875,12.8749 -0.93,16.3758 -0.2445,1.9366 -0.075,3.3942 0.6645,5.9532 0.9105,3.1215 0.948,3.8389 0.477,9.1035 -0.2805,3.1432 -0.4845,7.858 -0.45,10.4775 0.03,2.7165 -0.2205,5.8333 -0.5925,7.2552 -0.36,1.371 -0.543,2.6032 -0.408,2.7384 0.135,0.135 1.335,0.2475 2.6667,0.249 3.1821,0 11.0419,1.2015 13.5454,2.0637 1.9475,0.6705 1.9865,0.663 2.2712,-0.471 0.159,-0.6345 0.135,-1.8426 -0.06,-2.6843 -0.39,-1.7257 -0.8505,-7.4605 -0.7725,-9.6265 0.03,-0.786 0.03,-2.9289 0.01,-4.7625 -0.03,-1.8336 -0.06,-4.0839 -0.06,-5.0007 -0.011,-0.9165 0.15,-2.9142 0.354,-4.4387 0.2445,-1.8153 0.159,-3.9108 -0.249,-6.0718 -0.5235,-2.7786 -0.5175,-3.62 0.045,-5.3244 0.369,-1.113 0.5835,-2.2388 0.477,-2.5007 -0.225,-0.555 -0.6135,-9.9847 -0.6675,-16.1925 -0.03,-3.1461 0.24,-5.1916 1.008,-7.6898 l 1.0455,-3.4035 -0.9405,-2.0733 c -1.137,-2.5043 -1.1895,-3.9285 -0.2445,-6.6057 0.9885,-2.8022 1.002,-6.144 0.06,-14.7558 -0.4455,-4.0599 -0.7215,-9.2354 -0.612,-11.5008 l 0.198,-4.119 -2.6435,-1.8342 c -4.4035,-3.0552 -5.7055,-7.3401 -3.5103,-11.5518 0.7005,-1.344 1.035,-2.8547 1.044,-4.7036 0.01,-1.4985 0.2325,-3.6802 0.501,-4.8493 0.3765,-1.6335 0.318,-2.9013 -0.2535,-5.4768 -0.5415,-2.4429 -0.618,-3.7878 -0.279,-4.9614 0.3435,-1.1925 0.237,-2.8001 -0.4095,-6.1913 -0.6855,-3.5922 -0.822,-5.9952 -0.6375,-11.1316 0.1875,-5.1953 0.075,-7.1312 -0.552,-9.3581 -0.516,-1.8376 -0.7935,-4.6749 -0.8025,-8.2132 -0.03,-9.3941 -0.03,-10.1214 0,-12.3114 0.015,-1.179 0.045,-5.0363 0.06,-8.5725 0.015,-3.5361 0.045,-7.3937 0.06,-8.5725 0.01,-1.179 -0.012,-3.2147 -0.045,-4.5243 -0.2865,-10.0473 -0.294,-17.8592 -0.03,-21.6695 0.09,-1.323 -0.192,-2.9986 -0.7485,-4.3788 -0.813,-2.0152 -0.837,-2.4616 -0.2535,-4.5244 0.357,-1.2585 0.7365,-2.9315 0.846,-3.7173 0.105,-0.786 0.294,-1.8945 0.4095,-2.4636 0.375,-1.8288 2.5599,-3.8847 5.1637,-4.859 1.392,-0.5205 3.3653,-1.5162 4.3856,-2.2123 2.0629,-1.407 3.5142,-1.434 12.3325,-0.225 3.2225,0.441 4.9955,0.4575 7.1438,0.06 3.1896,-0.5865 4.4004,-0.6435 12.7396,-0.5865 0.852,0.01 4.6554,0.015 8.4536,0.015 3.798,0.01 10.8703,0.075 15.7162,0.156 6.4517,0.105 9.5018,-0.03 11.3925,-0.5265 2.076,-0.54 3.0698,-0.5625 5.0711,-0.12 1.9998,0.447 3.595,0.4125 8.1139,-0.18 7.1271,-0.9345 9.2151,-0.927 12.695,0.045 2.3275,0.6525 3.2134,0.6945 5.1873,0.2385 3.0283,-0.699 7.3035,-0.7065 8.6493,-0.015 0.5715,0.294 1.576,1.02 2.2309,1.6134 0.654,0.594 3.4215,1.7995 6.1484,2.6802 6.6004,2.1321 8.5132,3.8298 12.4342,11.0368 1.5944,2.9306 3.6104,6.2202 4.4802,7.3103 0.999,1.2525 1.6979,2.7592 1.8984,4.0957 0.222,1.476 0.7545,2.5302 1.7697,3.495 1.8374,1.7466 2.7966,3.5721 2.7966,5.3225 0,0.8595 0.4605,1.7998 1.2345,2.524 2.1219,1.9856 4.4871,5.5256 5.2859,7.9115 0.4215,1.26 1.5771,3.1815 2.5669,4.2687 1.7468,1.9188 3.7571,6.9064 3.7824,9.3843 0.015,1.5559 1.614,4.6897 3.071,6.0219 1.5487,1.416 4.8052,7.6852 5.2648,10.1353 0.222,1.182 0.8355,2.1222 1.9289,2.9565 1.2885,0.9825 1.8334,1.9716 2.7751,5.0382 0.723,2.3516 1.7241,4.4444 2.6118,5.4554 0.792,0.9015 1.6854,2.5545 1.9854,3.6721 0.3,1.1175 0.9525,2.9126 1.4505,3.9891 0.498,1.077 0.9045,2.1512 0.9045,2.3883 0,0.237 0.408,1.194 0.9075,2.1252 0.4995,0.9315 1.182,2.643 1.5168,3.803 0.3345,1.1595 1.4175,3.0051 2.4056,4.1004 2.3911,2.6503 5.6472,9.4794 5.6472,11.844 0,1.272 0.564,2.7681 1.8664,4.9477 3.0708,5.1401 3.6677,9.0875 1.9202,12.6975 -0.537,1.1085 -1.4685,2.3384 -2.0694,2.7324 -0.999,0.654 -1.0875,1.0395 -1.02,4.4448 0.045,2.0505 0.3495,4.545 0.687,5.5433 0.4845,1.434 0.5025,2.9466 0.09,7.2033 -0.489,5.0035 -0.459,5.5371 0.42,7.4719 1.062,2.3408 1.2255,4.937 0.4365,6.9341 -0.3165,0.801 -0.6045,6.0097 -0.717,12.9388 -0.105,6.3789 -0.2835,11.7537 -0.4005,11.944 -0.12,0.1905 0.09,1.359 0.4635,2.5962 0.525,1.7451 0.576,3.0539 0.2235,5.8298 -0.249,1.9686 -0.585,3.7912 -0.7455,4.0503 -0.1605,0.2595 -0.2775,1.5834 -0.261,2.9431 0.015,1.359 -0.1905,3.158 -0.459,3.9962 -0.549,1.7047 -3.3612,4.4172 -4.616,4.4514 -0.4485,0.012 -2.317,0.516 -4.1506,1.1205 -2.6372,0.8685 -3.5639,1.4355 -4.4348,2.7162 -1.8319,2.6929 -3.3564,4.0503 -6.0046,5.347 -2.2758,1.1145 -4.0862,2.9078 -4.0862,4.0476 0,0.2355 1.3395,1.014 2.9765,1.7315 1.6371,0.717 4.584,2.1075 6.5485,3.0901 11.7878,5.8962 12.3093,6.2145 14.6252,8.9261 1.2555,1.47 3.42,3.5127 4.8112,4.5408 1.392,1.0275 2.9268,2.5492 3.4122,3.3804 0.9975,1.7083 3.4793,5.0274 3.7839,5.0608 0.105,0.012 0.5385,-0.2835 0.9525,-0.6555 z m 52.2383,-91.1189 c -0.8955,-11.5062 -1.5343,-17.2751 -1.9566,-17.6823 -0.2625,-0.252 -1.8448,-0.9165 -3.5176,-1.476 -1.6728,-0.5595 -3.8121,-1.5407 -4.7541,-2.1806 -0.942,-0.6405 -2.3707,-1.164 -3.1753,-1.164 -0.804,0 -2.5986,-0.5655 -3.9869,-1.257 -2.8905,-1.44 -3.1447,-1.2915 -3.6643,2.1458 -0.2235,1.4775 -0.09,2.5497 0.462,3.7071 0.4275,0.8955 0.7815,2.7463 0.789,4.1127 0.01,2.0073 0.33,2.9827 1.6668,5.0814 0.9105,1.428 1.6567,2.9287 1.6594,3.3337 0,0.405 0.507,1.815 1.1205,3.1332 0.951,2.0432 1.5494,2.6277 4.0531,3.9621 2.6162,1.395 3.2091,1.5321 5.4278,1.26 1.3695,-0.168 3.0264,-0.09 3.6813,0.1755 2.4091,0.9735 2.505,0.8355 2.1946,-3.1498 z m -190.6034,-38.262 c 4.8658,-0.4395 5.9409,-0.405 7.636,0.2415 2.4732,0.945 4.8162,0.957 7.4178,0.045 1.113,-0.393 2.5881,-0.714 3.2768,-0.714 1.464,0 3.271,-2.0985 6.5611,-7.62 1.17,-1.9644 2.865,-4.7411 3.7652,-6.1701 0.9,-1.4295 1.6369,-3.2057 1.6369,-3.948 0,-1.9836 1.7106,-4.9968 3.3047,-5.8212 1.353,-0.699 1.5417,-1.0245 2.1247,-3.657 0.153,-0.693 1.026,-2.1555 1.94,-3.2489 0.9135,-1.0935 1.8909,-2.842 2.172,-3.8859 0.5475,-2.034 3.2916,-5.4304 4.765,-5.898 0.897,-0.285 7.5251,-8.7364 8.8302,-11.2603 0.381,-0.735 1.3515,-1.8234 2.1597,-2.4174 0.807,-0.594 2.6553,-2.7621 4.1063,-4.8182 2.6758,-3.7914 4.3677,-5.2108 7.1359,-5.9868 0.843,-0.237 2.1375,-0.8595 2.8749,-1.3845 0.738,-0.525 2.0829,-1.1535 2.9903,-1.395 2.1828,-0.582 2.0455,-1.9305 -0.438,-4.2999 -1.4235,-1.3575 -2.0883,-2.5555 -2.8577,-5.1462 -0.552,-1.8571 -1.4565,-3.786 -2.0113,-4.2862 -0.555,-0.4995 -2.0369,-2.9568 -3.2936,-5.4591 -1.257,-2.5023 -2.64,-4.8443 -3.0736,-5.2041 -1.2375,-1.0275 -2.1785,-3.1842 -2.649,-6.0753 -0.243,-1.491 -0.963,-3.4115 -1.6389,-4.3694 -3.7253,-5.2795 -4.5339,-5.9217 -4.5339,-3.6001 0,0.5745 -0.6435,1.8547 -1.428,2.8435 -1.0875,1.368 -1.428,2.2875 -1.428,3.8445 0,2.7567 -0.5235,3.96 -2.9454,6.7808 -3.1065,3.6169 -5.0772,6.4228 -6.4604,9.1986 -0.687,1.3785 -2.0766,3.2694 -3.0874,4.2006 -6.5526,6.0367 -7.4784,7.0671 -8.1743,9.0973 -0.468,1.365 -1.4325,2.7144 -2.7085,3.7875 -3.2441,2.7287 -9.9501,9.6218 -11.3514,11.6682 -0.717,1.047 -1.6793,2.8694 -2.1372,4.0481 -1.0425,2.6835 -2.8554,4.6396 -5.1645,5.5729 -0.9825,0.3975 -1.7859,0.8895 -1.7859,1.095 0,0.2055 -0.951,1.431 -2.1147,2.7251 -1.1625,1.293 -2.4813,3.2992 -2.9294,4.4568 -1.2285,3.1731 -2.8582,5.086 -5.4555,6.4021 -1.6188,0.8205 -2.6298,1.7393 -3.267,2.9697 -0.9765,1.8861 -5.1966,6.152 -8.3791,8.4705 -1.0485,0.7635 -3.0837,2.6588 -4.5243,4.2122 -2.7384,2.9524 -13.5096,12.1971 -14.2112,12.1971 -0.2235,0 -0.765,0.3975 -1.2045,0.8835 -0.762,0.843 -0.7035,0.921 1.275,1.6759 1.8779,0.717 2.2394,0.723 3.8061,0.075 2.1635,-0.9045 5.4488,-0.93 7.5207,-0.06 1.122,0.4725 1.9311,0.5325 2.7848,0.2085 1.374,-0.522 10.3554,-0.03 11.4589,0.621 0.393,0.234 1.464,0.3135 2.3813,0.1755 0.9165,-0.135 4.2153,-0.4785 7.3299,-0.7605 z m -40.1912,-10.0889 c 0,-0.4125 0.537,-1.3875 1.1925,-2.1667 0.657,-0.78 1.3365,-2.1357 1.5114,-3.0131 0.2145,-1.074 1.1865,-2.4304 2.9739,-4.1482 2.3169,-2.2275 3.2936,-3.8375 7.6565,-12.6207 4.3594,-8.7762 5.2387,-10.2263 6.8559,-11.3045 1.02,-0.681 2.1991,-1.8745 2.6194,-2.6541 0.42,-0.78 2.9564,-3.6543 5.6357,-6.3883 2.8134,-2.8709 5.3763,-5.9748 6.0663,-7.347 0.8415,-1.6743 1.9296,-2.8713 3.682,-4.0526 2.0219,-1.3635 2.6432,-2.1199 3.3225,-4.0482 0.5835,-1.656 1.6067,-3.0901 3.3912,-4.7529 2.4816,-2.3124 4.0308,-4.3128 6.5585,-8.4685 0.8085,-1.329 2.0974,-2.498 3.81,-3.4542 1.8877,-1.0545 2.8458,-1.9697 3.5406,-3.3834 1.0065,-2.0474 2.8669,-4.3869 7.7391,-9.7292 1.6371,-1.7952 2.9766,-3.5773 2.9766,-3.9606 0,-1.2225 2.3527,-3.5446 4.1827,-4.1274 0.9735,-0.3105 2.5205,-1.2645 3.4373,-2.1195 0.9165,-0.855 2.5776,-2.119 3.6909,-2.8077 1.113,-0.6885 2.0238,-1.3035 2.0236,-1.365 -3e-4,-0.06 -2.8086,-0.1575 -6.2409,-0.2115 -3.4323,-0.06 -7.0011,-0.3495 -7.9306,-0.657 -1.4475,-0.477 -2.1972,-0.399 -5.2167,0.549 -3.1583,0.99 -3.8024,1.0485 -6.1668,0.552 -2.3585,-0.495 -2.8382,-0.453 -4.4967,0.393 -1.392,0.711 -1.8566,1.2375 -1.8566,2.1105 0,0.6405 -0.429,2.2508 -0.9525,3.5798 -0.5235,1.329 -0.9525,2.9584 -0.9525,3.6208 0,0.663 -0.2475,1.6725 -0.5505,2.2446 -1.2435,2.3508 -5.0134,6.1895 -7.1356,7.2648 -1.757,0.891 -2.4732,1.6145 -3.1823,3.2177 -0.5175,1.1715 -1.8055,2.7745 -2.9671,3.6952 -1.128,0.894 -3.3131,2.8485 -4.8543,4.3422 -1.5413,1.494 -3.2196,2.8485 -3.7298,3.0104 -0.51,0.162 -1.2795,0.975 -1.71,1.8084 -1.5514,3.0016 -4.5423,6.5761 -6.1398,7.338 -0.897,0.4275 -1.7428,1.1325 -1.8805,1.5667 -0.2745,0.8625 -9.672,10.5119 -13.2122,13.5644 -2.1883,1.887 -3.9549,3.6424 -8.832,8.7766 -2.401,2.5277 -2.5056,2.7437 -2.2047,4.5584 0.354,2.1345 0.348,2.8992 -0.075,9.2091 -0.2295,3.4314 -0.135,4.8993 0.4425,6.4294 1.2975,3.4748 1.4835,7.5327 0.5145,11.2674 l -0.8685,3.3479 2.0606,2.0995 2.0607,2.0997 1.6045,-1.5583 c 0.882,-0.8565 1.6047,-1.8954 1.6047,-2.3072 z m -6.6847,-45.2512 c 0.015,-1.0935 1.6918,-4.3901 3.3082,-6.5295 0.693,-0.9165 1.6305,-2.4816 2.084,-3.4776 0.453,-0.996 1.7551,-2.8176 2.8927,-4.0481 1.167,-1.2615 2.405,-3.2443 2.8406,-4.5466 0.4245,-1.2705 1.528,-3.146 2.4519,-4.1687 0.924,-1.023 1.6798,-2.1636 1.6798,-2.5357 0,-0.372 0.498,-1.2825 1.1055,-2.0226 0.6075,-0.741 1.5857,-2.5497 2.1725,-4.0206 0.6105,-1.5297 2.0841,-3.7719 3.4438,-5.2388 1.308,-1.41 3.0767,-3.3145 3.9318,-4.2313 0.855,-0.9165 2.0526,-2.7074 2.661,-3.9791 1.161,-2.4282 3.1266,-4.6327 6.6924,-7.5088 1.176,-0.948 2.5439,-2.426 3.0393,-3.2831 l 0.9,-1.5582 -1.377,0.33 c -3.4234,0.822 -6.3312,0.8505 -8.6388,0.09 -1.8661,-0.6195 -2.6499,-0.6735 -3.7407,-0.2535 -0.759,0.2925 -2.3443,0.411 -3.523,0.264 -1.179,-0.15 -4.695,-0.075 -7.8138,0.1725 -4.5369,0.351 -6.3675,0.2955 -9.1572,-0.282 -1.9178,-0.396 -4.0808,-0.6525 -4.8069,-0.57 -1.185,0.135 -1.359,0.396 -1.703,2.5329 -0.21,1.3095 -0.4515,7.3104 -0.5355,13.335 -0.105,7.3761 -0.408,12.4031 -0.933,15.3911 -0.702,3.9979 -0.7095,4.9009 -0.075,9.1203 0.48,3.2074 0.5595,5.1733 0.2535,6.2389 -0.354,1.2345 -0.2625,1.8587 0.444,3.024 1.3755,2.2667 1.5672,4.1015 0.78,7.4447 -0.9615,4.0821 -0.9315,4.266 0.438,2.596 0.6435,-0.786 1.179,-1.8123 1.188,-2.2812 z m -488.9094,268.2752 c -0.555,-0.2235 -3.555,-0.672 -6.6675,-0.9945 -3.1125,-0.3225 -6.1285,-0.873 -6.7024,-1.2225 -0.5745,-0.3495 -2.2884,-0.7755 -3.81,-0.9465 -1.5216,-0.171 -3.1952,-0.5385 -3.7191,-0.816 -0.5235,-0.279 -2.3456,-0.9615 -4.0481,-1.5199 -3.2073,-1.0515 -4.6438,-2.5283 -3.8454,-3.9551 0.417,-0.744 6.9812,-2.6287 11.9417,-3.4275 1.7025,-0.2745 4.7077,-0.8115 6.6783,-1.1955 1.9705,-0.3825 4.141,-0.696 4.8234,-0.696 0.6825,0 2.0704,-0.3525 3.0847,-0.7815 2.2776,-0.966 8.3898,-1.056 15.4173,-0.225 2.7503,0.3255 8.001,0.6855 11.6681,0.801 7.7089,0.2445 8.7502,0.3315 13.57,1.143 1.9628,0.33 4.7163,0.483 6.119,0.3375 1.4025,-0.15 3.0223,-0.09 3.5992,0.135 1.245,0.474 6.9944,1.1055 9.2804,1.0215 1.8607,-0.075 2.9121,0.627 2.9121,1.9299 0,1.3125 -3.4613,2.6523 -8.4651,3.278 -2.2856,0.285 -4.7985,0.7545 -5.5844,1.0425 -0.786,0.2865 -2.3931,0.543 -3.5718,0.5685 -1.179,0.03 -3.3961,0.441 -4.9276,0.9225 -1.9137,0.6015 -3.4271,0.7785 -4.8393,0.567 -1.2525,-0.1875 -2.1753,-0.12 -2.3634,0.1905 -0.1695,0.2745 -1.233,0.4995 -2.363,0.4995 -1.1295,0 -3.0336,0.4335 -4.2304,0.963 -1.5903,0.7035 -2.6891,0.8805 -4.0818,0.6585 -1.134,-0.1815 -3.5693,0.03 -6.0119,0.51 -2.2584,0.4485 -4.6297,0.684 -5.2698,0.5235 -0.6675,-0.168 -1.7611,0.015 -2.5645,0.432 -1.5179,0.7845 -4.4157,0.9075 -6.0287,0.2565 z" id="1729468008128-7958867_vctrly-chalky-icon-delivery-van" fill="#212121" stroke-width="1"></path></g></g></svg>